<svg width="34" height="34" viewBox="0 0 34 34" fill="none" xmlns="http://www.w3.org/2000/svg">
<path d="M25.5 26.9167V33.575C26.4999 33.2322 27.4097 32.6686 28.1619 31.926L31.9246 28.1605C32.668 27.4093 33.2322 26.4998 33.575 25.5H26.9167C26.5409 25.5 26.1806 25.6493 25.9149 25.9149C25.6493 26.1806 25.5 26.5409 25.5 26.9167Z" fill="#0C8FA3"/>
<path d="M10.1603 19.5897C9.63393 20.1159 9.21636 20.7407 8.93147 21.4284C8.64659 22.116 8.49997 22.8531 8.5 23.5974V25.5H10.4026C11.1469 25.5 11.884 25.3534 12.5716 25.0685C13.2593 24.7836 13.8841 24.3661 14.4103 23.8397L30.4583 7.79166C31.0219 7.22808 31.3385 6.46369 31.3385 5.66666C31.3385 4.86963 31.0219 4.10525 30.4583 3.54166C29.8947 2.97808 29.1304 2.66146 28.3333 2.66146C27.5363 2.66146 26.7719 2.97808 26.2083 3.54166L10.1603 19.5897Z" fill="#0C8FA3"/>
<path d="M34 7.01533C33.7588 8.06622 33.2289 9.02887 32.47 9.79483L16.4135 25.8442C15.6259 26.636 14.6891 27.2636 13.6574 27.6909C12.6256 28.1181 11.5193 28.3365 10.4026 28.3333H8.5C7.74855 28.3333 7.02788 28.0348 6.49653 27.5035C5.96518 26.9721 5.66667 26.2514 5.66667 25.5V23.5974C5.66356 22.4808 5.8821 21.3746 6.30961 20.3431C6.73712 19.3115 7.3651 18.375 8.15717 17.5879L24.2052 1.5385C24.9654 0.778514 25.9226 0.245706 26.9691 0C26.9507 0 26.9351 0 26.9167 0H7.08333C5.20541 0.00224946 3.40504 0.749249 2.07714 2.07714C0.749249 3.40504 0.00224946 5.20541 0 7.08333L0 26.9167C0.00224946 28.7946 0.749249 30.595 2.07714 31.9229C3.40504 33.2508 5.20541 33.9977 7.08333 34H22.6667V26.9167C22.6667 25.7895 23.1144 24.7085 23.9115 23.9115C24.7085 23.1144 25.7895 22.6667 26.9167 22.6667H34V7.08333C34 7.06067 34 7.03942 34 7.01533Z" fill="#0C8FA3"/>
</svg>
