<?xml version="1.0" encoding="UTF-8"?><svg xmlns="http://www.w3.org/2000/svg" viewBox="0 0 750 500"><defs><style>.cls-1{fill:#f2e4e5;}.cls-2{fill:#002a42;}.cls-3{fill:#ebf5ff;}.cls-4{fill:#fff;}.cls-5{fill:#f0997f;}.cls-6{fill:#fdbd9b;}.cls-7{fill:#f0d3d8;}.cls-8,.cls-9{fill:#fbbd9a;}.cls-10{fill:#664216;}.cls-11{fill:#678ca8;}.cls-12{fill:#69c5c9;}.cls-13{fill:#6b4019;}.cls-14{fill:#8c4206;}.cls-15{fill:#855321;}.cls-16{fill:#9fd7e4;}.cls-17{fill:#9bebe7;}.cls-18{fill:#326894;}.cls-19{fill:#cf6e4a;}.cls-20{fill:#a7c2d9;}.cls-21{fill:#aaa;}.cls-22{fill:#d7f1ef;}.cls-23{fill:#a66317;}.cls-24{fill:#db8e62;}.cls-25{fill:#c4c4c4;}.cls-26{fill:#d68a5a;}.cls-27{fill:#d49ba0;}.cls-28{fill:#dae8f7;}.cls-29{fill:#124c4f;}.cls-30{fill:#112c45;}.cls-31{fill:#163a4a;}.cls-32{fill:#163649;}.cls-33{fill:#244d7a;}.cls-34{fill:#25487b;}.cls-35{fill:#24151a;}.cls-36{fill:#1d9fb3;}.cls-37{fill:#411f00;}.cls-38{fill:#407c91;}.cls-39{fill:#06384f;}.cls-40{fill:#412408;}.cls-41{fill:#136d94;}.cls-42{fill:#6e7071;}.cls-43{fill:#27b8c1;}.cls-44{fill:#2d3a5e;}.cls-45{fill:#474747;}.cls-46{fill:#2d2d2d;}.cls-47{fill:#2f344d;}.cls-48{fill:#381b07;}.cls-49{fill:#316382;}.cls-50{fill:#32c9cf;}.cls-51{fill:#33818e;}.cls-52{fill:#25b2c2;}.cls-53{fill:#3b93a6;}.cls-54{fill:#4b8394;}.cls-55{fill:#732d02;}.cls-56{fill:#502202;}.cls-57{fill:#4cb5bd;}.cls-58{fill:#4d8ab3;}.cls-59{stroke:#27788f;}.cls-59,.cls-60,.cls-61,.cls-62,.cls-63,.cls-64,.cls-65,.cls-66,.cls-9,.cls-67,.cls-68,.cls-69,.cls-70,.cls-71,.cls-72,.cls-73,.cls-74,.cls-75{stroke-linecap:round;}.cls-59,.cls-60,.cls-61,.cls-62,.cls-63,.cls-64,.cls-65,.cls-66,.cls-9,.cls-67,.cls-68,.cls-69,.cls-70,.cls-71,.cls-72,.cls-73,.cls-74,.cls-75,.cls-76{stroke-miterlimit:10;}.cls-59,.cls-60,.cls-61,.cls-62,.cls-63,.cls-64,.cls-65,.cls-66,.cls-67,.cls-68,.cls-69,.cls-70,.cls-71,.cls-72,.cls-73,.cls-74,.cls-75,.cls-76{fill:none;}.cls-60{stroke:#51dbdb;}.cls-61,.cls-76{stroke:#163649;}.cls-62{stroke:#366c93;}.cls-63{stroke:#b8c8e3;}.cls-64{stroke:#9fd7e4;}.cls-65{stroke:#f2cdbf;}.cls-66{stroke:#fff;}.cls-9,.cls-70{stroke:#d45e4e;}.cls-67,.cls-68,.cls-69{stroke-width:.5px;}.cls-67,.cls-73{stroke:#a8473e;}.cls-68,.cls-71{stroke:#b0514a;}.cls-69{stroke:#3e7c8a;}.cls-70,.cls-71,.cls-72,.cls-73,.cls-74,.cls-75{stroke-width:2px;}.cls-72{stroke:#502202;}.cls-74{stroke:#8c4206;}.cls-75{stroke:#412408;}</style></defs><g id="BACKGROUND"><rect class="cls-4" width="750" height="500"/></g><g id="OBJECTS"><g><path class="cls-22" d="M234.01,445.78c90.67,22.75,238.89,25.29,338.93-22.6,92.41-44.23,111.43-206.85,48.01-299.09-45.07-65.55-131.42-91.7-214.22-82.41-97.7,10.96-123.62,78.52-188.45,127.06-40.34,30.2-122.73,22.77-138.29,110.89-17.72,100.43,91.42,150.44,154.02,166.15Z"/><g><g><g><path class="cls-53" d="M551.25,443.35c11.63-201.76,99.39-226.6,113.17-209.62,28.87,35.56-71.37,146.89-113.17,209.62Z"/><g><path class="cls-64" d="M654.86,241.71c-49.13,57.27-84.18,126.53-101.23,200.03"/><path class="cls-64" d="M628.97,243.44c2.85,8.45,4.4,17.33,4.6,26.24,9.38-2.02,18.95-3.11,28.55-3.25"/><path class="cls-64" d="M595.19,278.41c5.52,9.59,9.59,20,12.05,30.78,11.15-2.39,22.57-3.55,33.97-3.45"/><path class="cls-64" d="M571.91,329.12c4.6,7.21,8.57,14.82,11.85,22.72,10.79-4.36,22.48-6.47,34.11-6.15"/><path class="cls-64" d="M593.88,377.8c-7.08-.52-14.24,.02-21.16,1.58-1.8-5.72-4.36-11.2-7.59-16.24"/></g></g><g><path class="cls-53" d="M551.25,443.35c64.5-102.7,146.84-136.54,150.58-99.43,5.19,51.39-106.05,84.93-150.58,99.43Z"/><g><path class="cls-64" d="M691.58,347.55c-50.78,24.24-97.77,56.41-138.74,94.98"/><path class="cls-64" d="M673.33,336.83c.21,7.16-.47,14.35-2.04,21.34,7.05,.68,13.87,3.46,19.38,7.91"/><path class="cls-64" d="M638.95,352.71c1.33,7.54,1.86,15.22,1.56,22.88,9.54,.87,18.84,4.16,26.8,9.47"/><path class="cls-64" d="M606.41,376.38c2.63,5.91,3.86,12.43,3.58,18.89,8.82,.69,17.47,3.49,25.02,8.09"/></g></g></g><g><g><rect class="cls-25" x="438.11" y="282.17" width="143" height="15"/><g><polygon class="cls-25" points="576.89 297.17 576.89 443.35 564.22 443.35 564.22 435.35 454.94 435.35 454.94 443.35 442.32 443.35 442.32 297.17 576.89 297.17"/><rect class="cls-42" x="442.32" y="297.17" width="134.56" height="3"/></g><g><g><rect class="cls-42" x="455.78" y="310.27" width="107.25" height="32.5"/><rect class="cls-21" x="454.68" y="307.27" width="109.45" height="32.5"/></g><g><rect class="cls-42" x="455.78" y="351.27" width="107.25" height="32.5"/><rect class="cls-21" x="454.68" y="348.27" width="109.45" height="32.5"/></g><g><rect class="cls-42" x="455.78" y="392.27" width="107.25" height="32.5"/><rect class="cls-21" x="454.68" y="389.27" width="109.45" height="32.5"/></g></g></g><g><g><g><g><path class="cls-4" d="M473.19,274.88v-22.75h6.25v22.75c0,1.52-1.23,2.75-2.75,2.75h-.75c-1.52,0-2.75-1.23-2.75-2.75Z"/><path class="cls-4" d="M472.06,251.41h0c0-.39,.32-.72,.72-.72h7.07c.39,0,.72,.32,.72,.72h0c0,.39-.32,.72-.72,.72h-7.07c-.4,0-.72-.33-.72-.72Z"/></g><path class="cls-16" d="M474.19,274.51v-14.88h4.25v14.88c0,1.17-.95,2.12-2.12,2.12h0c-1.18,0-2.13-.95-2.13-2.12Z"/></g><g><g><path class="cls-4" d="M485.69,274.88v-22.75h6.25v22.75c0,1.52-1.23,2.75-2.75,2.75h-.75c-1.52,0-2.75-1.23-2.75-2.75Z"/><path class="cls-4" d="M484.56,251.41h0c0-.39,.32-.72,.72-.72h7.07c.39,0,.72,.32,.72,.72h0c0,.39-.32,.72-.72,.72h-7.07c-.4,0-.72-.33-.72-.72Z"/></g><path class="cls-16" d="M486.69,274.51v-14.88h4.25v14.88c0,1.17-.95,2.12-2.12,2.12h0c-1.18,0-2.13-.95-2.13-2.12Z"/></g><g><g><path class="cls-4" d="M498.94,274.88v-22.75h6.25v22.75c0,1.52-1.23,2.75-2.75,2.75h-.75c-1.52,0-2.75-1.23-2.75-2.75Z"/><path class="cls-4" d="M497.81,251.41h0c0-.39,.32-.72,.72-.72h7.07c.39,0,.72,.32,.72,.72h0c0,.39-.32,.72-.72,.72h-7.07c-.4,0-.72-.33-.72-.72Z"/></g><path class="cls-16" d="M499.94,274.51v-14.88h4.25v14.88c0,1.17-.95,2.12-2.12,2.12h0c-1.18,0-2.13-.95-2.13-2.12Z"/></g><g><g><path class="cls-4" d="M512.44,274.88v-22.75h6.25v22.75c0,1.52-1.23,2.75-2.75,2.75h-.75c-1.52,0-2.75-1.23-2.75-2.75Z"/><path class="cls-4" d="M511.31,251.41h0c0-.39,.32-.72,.72-.72h7.07c.39,0,.72,.32,.72,.72h0c0,.39-.32,.72-.72,.72h-7.07c-.4,0-.72-.33-.72-.72Z"/></g><path class="cls-7" d="M513.44,274.51v-14.88h4.25v14.88c0,1.17-.95,2.12-2.12,2.12h0c-1.18,0-2.13-.95-2.13-2.12Z"/></g><g><g><path class="cls-4" d="M526.94,274.88v-22.75h6.25v22.75c0,1.52-1.23,2.75-2.75,2.75h-.75c-1.52,0-2.75-1.23-2.75-2.75Z"/><path class="cls-4" d="M525.81,251.41h0c0-.39,.32-.72,.72-.72h7.07c.39,0,.72,.32,.72,.72h0c0,.39-.32,.72-.72,.72h-7.07c-.4,0-.72-.33-.72-.72Z"/></g><path class="cls-7" d="M527.94,274.51v-14.88h4.25v14.88c0,1.17-.95,2.12-2.12,2.12h0c-1.18,0-2.13-.95-2.13-2.12Z"/></g></g><g><rect class="cls-20" x="467.01" y="253.44" width="77" height="2"/><rect class="cls-30" x="462.98" y="277.17" width="86" height="5"/><g><rect class="cls-30" x="466.39" y="250.69" width="2.19" height="28.97"/><rect class="cls-27" x="542.7" y="250.69" width="2.19" height="28.97"/></g></g></g></g><g><g><g><path class="cls-53" d="M152.33,353.68c18.12-22.73,26.97-52.54,24.16-81.4-2.81-28.86-17.25-56.43-40.24-75.59,.33,21.38-.55,42.78-2.65,64.06-1.99,20.24-5.05,40.94-.21,60.7,2.88,11.75,8.54,22.81,18.94,32.23Z"/><g><path class="cls-62" d="M150.63,379.63c0-71.53,18.98-94.62-8.83-170.11"/><path class="cls-62" d="M155.04,221.93c-1.94,4.14-3.88,8.29-5.82,12.43-3.45-1.7-7.23-2.73-11.06-3.02"/><path class="cls-62" d="M135.67,264.96c7.29,.29,14.5,2.26,20.93,5.69,4.27-5.27,9.35-9.89,15-13.66"/><path class="cls-62" d="M134.84,299.66c7.32-.6,14.84,1.32,20.96,5.36,5.95-6.3,12.8-11.76,20.28-16.17"/><path class="cls-62" d="M138.15,328.25c5.49,.59,10.74,3.21,14.49,7.24,3.97-5.41,8.82-10.19,14.31-14.08"/></g></g><g><path class="cls-57" d="M165.38,351.5s-15.4-33.69,4.33-70.56c10.9-20.37,34.45-45.16,63.82-65.89,0,0-13.98,76.1-31.35,107.92-13.38,24.52-36.8,28.53-36.8,28.53Z"/><g><path class="cls-64" d="M222.9,229.78c-30.34,48.74-51.94,101.92-69.07,156.63"/><path class="cls-65" d="M203.6,241.85c1.82,4.24,3.28,8.64,4.35,13.12,5.15-.98,10.36-1.63,15.59-1.96"/><path class="cls-64" d="M179.5,272.43c4.26,6.04,7.71,12.64,10.21,19.58,8.03-3.87,16.67-6.49,25.51-7.74"/><path class="cls-64" d="M165.33,298.29c5.21,6.69,9.17,14.34,11.59,22.44,9.04-3.81,18.49-6.66,28.14-8.49"/><path class="cls-64" d="M161.49,329.41c3,3.35,5.82,6.87,8.43,10.53,6.65-2.73,13.64-4.68,20.75-5.78"/></g></g><g><path class="cls-57" d="M136.34,358.32s13.35-18.93,3.48-51.76c-13.52-44.98-69.83-76.88-69.83-76.88,0,0,15.1,61.54,26.88,92.2,11.93,31.02,39.47,36.44,39.47,36.44Z"/><g><path class="cls-64" d="M139.82,374.82s-7.68-61.9-62.37-136.52"/><path class="cls-64" d="M97.27,251.35c-1.6,3.72-2.67,7.66-3.17,11.67-3.82-1.08-7.8-1.63-11.78-1.62"/><path class="cls-64" d="M90.05,293.03c7.46-1.15,15.19-.61,22.41,1.57,1.4-6.69,4.55-13.02,9.05-18.19"/><path class="cls-64" d="M137.78,305.94c-5.09,5.59-9.08,12.17-11.67,19.25-7.07-3.06-15.22-3.58-22.63-1.44"/><path class="cls-64" d="M119.4,348.38c4.87-.89,9.89-.95,14.78-.2,1.7-3.91,4.14-7.5,7.16-10.52"/></g></g></g><g><polygon class="cls-16" points="187.68 363.53 185.57 375.43 183.26 388.52 182.04 395.38 179.73 408.48 173.57 443.35 128.59 443.35 122.31 408.48 119.95 395.38 118.72 388.52 116.35 375.43 114.21 363.53 187.68 363.53"/><polygon class="cls-57" points="185.57 375.43 183.26 388.52 118.72 388.52 116.35 375.43 185.57 375.43"/><polygon class="cls-57" points="182.04 395.38 179.73 408.48 122.31 408.48 119.95 395.38 182.04 395.38"/></g></g></g><g><g><g><g><g><rect class="cls-18" x="195.88" y="425.1" width="73.67" height="6.85"/><g><path class="cls-58" d="M208.49,361.68c0,.17-.02,.35-.04,.52l-1.14,9.44-10.19,84.11c-.27,2.26-2.27,3.86-4.47,3.57-2.03-.26-3.52-2.03-3.52-4.07,0-.17,.02-.35,.04-.52l10.06-83.09,1.26-10.45c.28-2.25,2.27-3.86,4.47-3.57,2.05,.25,3.53,2.02,3.53,4.06Z"/><path class="cls-18" d="M208.49,361.68c0,.17-.02,.35-.04,.52l-1.14,9.44h-8.07l1.26-10.45c.28-2.25,2.27-3.86,4.47-3.57,2.04,.25,3.52,2.02,3.52,4.06Z"/></g><g><path class="cls-58" d="M237.73,360.97v94.26c0,2.28-1.79,4.11-4,4.11-1.1,0-2.1-.46-2.83-1.21-.72-.74-1.17-1.76-1.17-2.91v-94.26c0-2.28,1.8-4.11,4-4.11,1.11,0,2.11,.46,2.83,1.21s1.17,1.78,1.17,2.91Z"/><path class="cls-18" d="M236.55,358.07c.73,.74,1.17,1.77,1.17,2.91v10.66h-8.01v-10.66c0-2.28,1.8-4.11,4-4.11,1.12-.01,2.12,.45,2.84,1.2Z"/></g><g><path class="cls-58" d="M277.99,455.23c0,2.06-1.48,3.82-3.51,4.08-2.2,.28-4.2-1.32-4.47-3.57l-10.19-84.11-1.14-9.44c-.02-.17-.04-.35-.04-.52,0-2.04,1.49-3.8,3.52-4.07,2.2-.28,4.19,1.32,4.47,3.57l1.26,10.45,10.06,83.09c.03,.19,.04,.35,.04,.52Z"/><path class="cls-18" d="M267.9,371.63h-8.07l-1.14-9.44c-.02-.17-.04-.35-.04-.52,0-2.04,1.49-3.8,3.52-4.07,2.2-.28,4.19,1.32,4.47,3.57l1.26,10.46Z"/></g></g><g><path class="cls-45" d="M285.28,350.34v2.67c0,4.67-3.78,8.45-8.45,8.45h-75.64c-4.67,0-8.45-3.78-8.45-8.45v-2.67c0-4.67,3.78-8.45,8.45-8.45h75.64c4.67-.01,8.45,3.78,8.45,8.45Z"/><path class="cls-46" d="M285.28,350.34v2.67c0,4.67-3.78,8.45-8.45,8.45h-68.66c-4.67,0-8.45-3.78-8.45-8.45v-2.67c0-4.67,3.78-8.45,8.45-8.45h68.66c4.67-.01,8.45,3.78,8.45,8.45Z"/></g></g><g><path class="cls-55" d="M206.29,181.92c-.95,1.94-1.91,3.89-2.76,5.76-.58,3.34-.24,6.76,0,10.15s.38,6.84-.57,10.11-3.16,6.35-6.42,7.6c-2.12,.81-4.65,.87-6.29,2.41-1.86,1.75-1.73,4.69-1.05,7.11,.57,2.03,1.47,4.05,3.08,5.46s4.2,2.33,5.96,1.31c1.74-1.02,4.05-.28,5.31,1.26s1.85,3.53,3.09,5.09c1.76,2.22,4.71,3.37,7.6,3.44s5.97-.34,7.9-1.54c4.13-2.59,9.28-4.31,13.51-1.88,2.23,1.28,3.99,3.32,6.4,4.24,2.05,.78,4.44,.63,6.37-.39s2.67-3.2,3.88-4.87c2.22-3.06,7.6-.59,11.32-1.6,3.98-1.09,6.66-5.46,5.73-9.37s-5.26-5.3-9.12-5.88c-2.65-.4-3.74-3.77-4.35-6.29-.61-2.53-.5-5.16-.39-7.76,.23-5.29,2.64-17.63,1.11-19.29-.8-.87-3.8-3.07-4.89-3.56-5.02-2.29-10.04-4.59-15.06-6.88-4.57-2.09-9.36-4.22-14.41-4.08-5.04,.11-12.33,2.08-15.95,9.45Z"/><g><path class="cls-3" d="M223.69,229.55s-22.28,3.52-24.64,11.41,11.17,63.1,11.17,63.1l50.06-3.06s3.64-63.64-4.32-67.63-32.27-3.82-32.27-3.82Z"/><g><path class="cls-8" d="M243.12,231.74s-3.25,11.07-9.15,13.49c-5.89,2.43-18.79-12.34-18.79-12.34,2.6-1.65,3.58-5.62,3.9-9.24,.32-3.68-.04-6.98-.04-6.98l17.9,3.44c-.46,5.54,1.17,8.45,2.88,9.98,1.62,1.46,3.3,1.65,3.3,1.65Z"/><path class="cls-5" d="M239.82,230.1c-8.5,1.12-16.2-3.14-20.74-6.44,.32-3.68-.04-6.98-.04-6.98l17.9,3.44c-.47,5.53,1.17,8.45,2.88,9.98Z"/></g></g><g><g><g><path class="cls-33" d="M291.6,439.31c-1.93,3.21-35.43-17.44-35.43-21,0-2.32,4.37-5.68,7.41-7.72,1.63-1.1,2.87-1.83,2.87-1.83l7.82-3.59,3.52,1.89c5.13,8.84,10.03,18.05,12.48,24.46,1.46,3.78,2.05,6.6,1.33,7.79Z"/><path class="cls-5" d="M290.28,431.51c-9.6,.4-22.29-15.13-26.69-20.93,1.63-1.1,2.87-1.83,2.87-1.83l7.82-3.59,3.52,1.89c5.14,8.84,10.03,18.05,12.48,24.46Z"/></g><path class="cls-2" d="M257.13,305.72s60.98,7.72,63.05,23.33c2.07,15.6-38.25,84.49-38.25,84.49l-14.5-3.78,18.92-61.58-48.55-20.6,9.67-21.86h9.66Z"/></g><g><g><path class="cls-33" d="M276.78,441.09c-1.93,3.21-35.43-17.44-35.43-21,0-2.32,4.37-5.68,7.41-7.72,1.63-1.1,2.87-1.83,2.87-1.83l7.82-3.59,3.52,1.89c5.13,8.84,10.03,18.05,12.48,24.46,1.46,3.78,2.05,6.6,1.33,7.79Z"/><path class="cls-8" d="M275.46,433.29c-9.6,.4-22.29-15.13-26.69-20.93,1.63-1.1,2.87-1.83,2.87-1.83l7.82-3.59,3.52,1.89c5.14,8.84,10.03,18.05,12.48,24.46Z"/></g><g><path class="cls-39" d="M205.7,300.49s-21.13,41.78,16.05,46.29c27.01,3.28,44.91,2.62,45.47,4.12,.92,2.41-17.57,60.75-17.57,60.75l18.21,5.76s37.69-80.95,35.64-88c-1.69-5.8-53.7-14.65-53.7-14.65,4.38-2.08,7.6-9.65,7.13-19.41l-51.23,5.14Z"/><g><path class="cls-59" d="M211.56,296.87s-12.12,26.67-2.42,37.49c11.43,12.75,61.42,8.64,64.9,13.15,2.79,3.61-19.31,62.58-19.31,62.58"/><line class="cls-59" x1="251.12" y1="409.2" x2="268.74" y2="414.57"/></g></g></g></g><g><path class="cls-5" d="M251.68,197.45c4.3-.49,8.07,1.66,8.42,4.8,.36,3.14-2.84,6.08-7.14,6.57-4.3,.49-8.07-1.66-8.42-4.8-.36-3.14,2.84-6.08,7.14-6.57Z"/><g><path class="cls-8" d="M209.14,197.2c0-14.83,9.42-26.85,22.07-26.85s22.91,12.02,22.91,26.85-6.47,27.59-18.38,28.05c-12,.46-26.6-13.23-26.6-28.05Z"/><path class="cls-5" d="M210.37,200.64c6.36-2.95,11.6-8.23,13.95-14.68,3.29,3.71,8.09,5.81,12.96,6.72s9.87,.74,14.55,.61c1.52,1.29,2.58,3.11,2.94,5.07,.53-4.4,.06-8.93-1.37-13.13-12.6-3.84-25.12-7.92-37.57-12.23-1.86,8.87-3.72,17.74-5.46,27.64Z"/></g><g><path class="cls-14" d="M222.24,179.17c2.71,5.11,7.95,8.51,13.46,10.27,5.51,1.75,11.37,2.04,17.23,2.21,.92,3.22,1.11,6.99,1.11,10.29,2.02-4.68,3.06-8.67,3.25-12.55,.05-1.12,.05-2.26,.02-3.46-.29-8.16-3.67-12.8-8.2-16.28-4.54-3.48-10.11-4.96-15.83-4.96s-9.24,1.28-11.39,3.51c-.76,.79-1.34,1.69-1.76,2.7-.92,2.16,.11,4.51,2.11,8.27Z"/><path class="cls-14" d="M203.4,202.43c-.19-7.25-.65-19.66,2.27-25.59,1.91-3.88,5.52-7.11,9.81-7.69,4.29-.57,9.03,2.08,10.02,6.29-1.9,9.74-6.79,18.68-13.72,25.69-2.4,1.16-5.94,1.93-8.38,1.3Z"/><path class="cls-23" d="M221.88,168.21c8.29-2.24,17.57-.28,24.42,4.92,5.31,4.03,9.12,9.86,10.99,16.27,.05-1.12,.05-2.26,.02-3.46-.29-8.16-3.67-12.8-8.2-16.28-4.54-3.48-10.11-4.96-15.83-4.96s-9.25,1.28-11.4,3.51Z"/></g><path class="cls-8" d="M200.73,202.66c.78-3.06,4.81-4.67,9-3.6,4.19,1.07,6.95,4.42,6.17,7.48-.78,3.06-4.81,4.67-9,3.6-4.19-1.07-6.95-4.42-6.17-7.48Z"/><g><ellipse class="cls-47" cx="232.06" cy="204.6" rx="1.19" ry="1.9"/><ellipse class="cls-47" cx="248.61" cy="204.61" rx="1.19" ry="1.9"/><path class="cls-74" d="M245.13,195.75c2.04-.69,4.94-.54,6.95,.84"/><path class="cls-74" d="M233.08,195.54c-2.23-.99-6.32-.78-8.25,1.42"/><path class="cls-70" d="M240.53,203.45c.54,2.02,.14,4.53-.51,6.11"/><path class="cls-70" d="M239.1,215.44c-2.64,.52-7.42-.99-8.72-3.19"/></g></g><g><g><path class="cls-8" d="M248.61,238.48l8.93-5.39s7.53,.64,12.63,10.01c5.07,9.32,14.62,39.45,17.63,40.78s39.7,1.8,39.7,1.8l.5,10.75s-44.94,7.13-50.3,4.18c-5.36-2.96-22.71-37.7-22.71-37.7l-6.38-24.43Z"/><path class="cls-51" d="M248.06,237.27l1.72-6.02s9.86,.42,14.9,4.37,9.17,14.69,9.17,14.69l-12.82,20.7-12.97-33.74Z"/><path class="cls-32" d="M263.27,278.78s13.77-11.89,15.89-14.86c1.05-1.47,8.5,15.84,7.24,17.96-2.01,3.38-14.56,11.5-15.26,11.03s-7.87-14.13-7.87-14.13Z"/><path class="cls-29" d="M259.66,267.95c4.15-6.59,8.3-13.17,12.44-19.76,.23-.36,.47-.74,.83-.98,1.03-.69,2.53,.16,2.95,1.32,.43,1.17,.12,2.46-.2,3.66,1.33-.21,2.53,1.09,2.69,2.42,.17,1.34-.41,2.65-1.04,3.84-3.84,7.27-10.28,13.12-17.88,16.25-.35-2.26-1.04-4.77,.21-6.75Z"/><g><path class="cls-8" d="M321.83,287.36c5.14-3.61,15.08-10.77,15.83-11.11,.88-.4,6.92-.43,10.21,.56,3.29,.99,6.35,3.26,7.54,6.5,.33,.91,.42,2.12-.38,2.65-.52,.35-1.24,.23-1.78-.09s-.94-.83-1.37-1.29c-2.2-2.39-4.19-3.33-7.8-3.53,4.28,.65,7,3.29,8.28,7.45,.25,.83,.35,1.88-.32,2.42-.53,.42-1.33,.31-1.9-.06s-.96-.95-1.39-1.48c-1.57-2-3.67-3.57-6.02-4.51,3.27,1.39,5.72,4.58,6.24,8.12,.08,.52,.11,1.07-.09,1.55s-.71,.87-1.22,.78c-.4-.07-.69-.39-.96-.69-1.78-2.01-3.18-4.15-5.55-5.59,2.16,2.88,3.98,7.56,3.53,8.78-.14,.37-1.06,1.01-2.09-.01-1.17-1.17-1.99-3.17-3.81-5.4-3.11,3.47-8.14,5.08-12.67,4.06-1.47-3.08-2.91-6.17-4.28-9.11Z"/><path class="cls-9" d="M331.16,282.78c3.65-1.31,7.37-2.43,11.15-3.33,.5-.12,1.02-.24,1.53-.18s1.03,.33,1.25,.79c.23,.48,.08,1.07-.23,1.5s-.76,.74-1.22,1.02c-1.59,.99-3.28,1.83-5.06,2.68-.35,2.68-2.32,5.07-4.88,5.92"/></g></g><path class="cls-53" d="M240.12,230.28c2.14,1.86,3.53,12.34,4.63,19,1.65,9.98,10.05,53.37,10.55,56.44,.89,5.42,18.05,5.05,18.74,2.22,.13-.52-5.01-2.91-5.83-6.37-.73-3.1-6.43-63.51-9.18-66.69-3.63-4.2-19.6-5.2-18.91-4.6Z"/></g><g><path class="cls-53" d="M216.57,230.28c1.79,.64,7.41,12.58,10.08,23.51,5.58,22.83,2.26,56.73,0,61.21s-24.16,6.45-27.88,5.26c-2.16-.69-4.51-69.03-3.02-77.61,1-5.72,20.28-12.56,20.82-12.37Z"/><path class="cls-8" d="M249.38,306.62c4.62-1.69,17.99-5.21,19.84-5.02,1.86,.19,3.79,.86,4.96,2.42,.75,1,1.12,2.27,1.47,3.5l1.71,6c.2,.7,.4,1.43,.3,2.15s-.6,1.44-1.28,1.49c-.96,.08-1.56-1.07-1.91-2.04-.9-2.49-1.8-4.98-2.69-7.42,.59,3.07,1.17,6.15,1.76,9.22,.14,.73,.28,1.48,.11,2.2-.17,.72-.73,1.39-1.42,1.38-1.02-.02-1.51-1.33-1.74-2.41-.51-2.4-1.03-4.81-1.82-7.19,1.06,3.38,1.22,7.08,.44,10.55-.12,.53-.28,1.09-.64,1.47-.36,.38-1,.52-1.38,.16-.29-.27-.35-.73-.39-1.14-.31-3.1-.62-6.21-.93-9.31,.3,3.27,.59,6.64-.33,9.77-.16,.56-.38,1.12-.79,1.5s-1.07,.5-1.49,.14c-.41-.35-.46-.98-.48-1.54-.07-1.95-.14-3.9-.15-6.18-1.72,2.01-4.1,3.35-6.61,3.74s-5.14-.19-7.61-.98c.22-3.63,.43-7.27,1.07-12.46Z"/><path class="cls-53" d="M215.18,250.69c-1.4-6.47-7.2-16.96-11.93-14.79-2.71,1.25-10.52,3.86-10.52,20.97,0,23.13,3.04,53.52,10.52,58.61,3.8,2.59,45.36,5.13,45.36,5.13l3.04-14.89s-30.63-5.68-32.04-9.88c-1.99-5.93-.71-27.94-4.43-45.15Z"/><g><path class="cls-62" d="M211.56,247.14c5.14,17.38,6.22,46.95,6.98,48.73,.69,1.62,4.6,2.3,7.67,3.35"/><path class="cls-62" d="M217.43,318.13c-5.7-.57-12.78-1.68-14.36-2.86-1.86-1.39-4.13-8.19-5.73-12.83"/><path class="cls-62" d="M216.6,275.89c2.05-2.57,2.89-6.83,3.06-12.02"/></g></g></g></g><g><g><g><g><rect class="cls-18" x="368.36" y="423.32" width="73.67" height="6.67"/><g><path class="cls-58" d="M380.98,361.55c0,.17-.02,.34-.04,.51l-1.14,9.19-10.19,81.91c-.27,2.2-2.27,3.76-4.47,3.48-2.03-.26-3.52-1.98-3.52-3.96,0-.17,.02-.34,.04-.51l10.06-80.93,1.26-10.18c.28-2.19,2.27-3.76,4.47-3.48,2.04,.27,3.53,1.99,3.53,3.97Z"/><path class="cls-18" d="M380.98,361.55c0,.17-.02,.34-.04,.51l-1.14,9.19h-8.07l1.26-10.18c.28-2.19,2.27-3.76,4.47-3.48,2.03,.26,3.52,1.98,3.52,3.96Z"/></g><g><path class="cls-58" d="M410.21,360.86v91.8c0,2.22-1.79,4-4,4-1.1,0-2.1-.44-2.83-1.17s-1.17-1.72-1.17-2.83v-91.8c0-2.22,1.8-4,4-4,1.11,0,2.11,.44,2.83,1.17,.73,.73,1.17,1.73,1.17,2.83Z"/><path class="cls-18" d="M409.04,358.03c.73,.72,1.17,1.73,1.17,2.83v10.39h-8.01v-10.39c0-2.22,1.8-4,4-4,1.12,0,2.12,.45,2.84,1.17Z"/></g><g><path class="cls-58" d="M450.48,452.67c0,2-1.48,3.72-3.51,3.98-2.2,.28-4.2-1.28-4.47-3.48l-10.19-81.91-1.14-9.19c-.02-.17-.04-.34-.04-.51,0-1.98,1.49-3.7,3.52-3.96,2.2-.28,4.19,1.29,4.47,3.48l1.26,10.18,10.06,80.93c.03,.16,.04,.32,.04,.48Z"/><path class="cls-18" d="M440.39,371.25h-8.07l-1.14-9.19c-.02-.17-.04-.34-.04-.51,0-1.98,1.49-3.7,3.52-3.96,2.2-.28,4.19,1.29,4.47,3.48l1.26,10.18Z"/></g></g><g><path class="cls-45" d="M457.77,350.34v2.67c0,4.67-3.78,8.45-8.45,8.45h-75.64c-4.67,0-8.45-3.78-8.45-8.45v-2.67c0-4.67,3.78-8.45,8.45-8.45h75.64c4.67-.01,8.45,3.78,8.45,8.45Z"/><path class="cls-46" d="M457.77,350.34v2.67c0,4.67-3.78,8.45-8.45,8.45h-68.65c-4.67,0-8.45-3.78-8.45-8.45v-2.67c0-4.67,3.78-8.45,8.45-8.45h68.65c4.67-.01,8.45,3.78,8.45,8.45Z"/></g></g><g><g><g><g><path class="cls-6" d="M358.7,229.55c1.52-2.49,.04-5.73,.52-8.61,.14-.8,.46-1.61,1.1-2.12s1.65-.58,2.23,0c.71,.69,.47,1.85,.46,2.84-.02,1.78,.83,3.43,1.2,5.17,.9,4.22-1.34,7.69-3.48,11.33-2.69,1.86-6.31,3.17-8.57,3.39-1.42,.14-8.69-3.87-11.53-12.49-1.43-4.32-1.26-6.11-.78-6.7s1.42-.87,2.03-.41c.37,.27,.54,.73,.69,1.16,.91,2.59,1.81,5.18,2.7,7.87-3.51-3.28-5.47-8.15-5.19-12.95,.05-.92,.33-2.03,1.21-2.3,.56-.18,1.19,.08,1.61,.5s.68,.96,.93,1.5c1.26,2.73,2.53,5.45,4.3,8.69-3.21-3.04-4.58-7.88-3.44-12.15,.19-.72,.62-1.56,1.37-1.57,.76,0,1.21,.83,1.48,1.55,1.28,3.43,2.56,6.87,3.84,10.3-1.83-2.85-2.61-6.36-2.16-9.72,.16-1.22,.78-2.69,2.02-2.74,.7-.03,1.35,.45,1.72,1.05s.52,1.3,.69,1.99c.96,3.92,2.7,7.64,5.05,14.43Z"/><path class="cls-68" d="M340.62,222.03c1.14-.31,1.94,.09,2.38,1.74,.62,2.33,2.27,7.73,3.97,8.93"/></g><polygon class="cls-6" points="361.09 236.02 365.28 245.79 354.2 252.5 349.27 239.46 361.09 236.02"/></g><g><path class="cls-49" d="M360.63,224.52c-.8-4.47-4.17-7.74-8.02-8.15l-.06-.31s-2.01,.36-2.68,.51c-4.38,.98-7.09,5.89-6.19,10.97,.91,5.08,5.15,8.74,9.6,8.15,.68-.09,2.69-.45,2.69-.45l-.06-.31c3.48-1.7,5.52-5.93,4.72-10.41Z"/><path class="cls-38" d="M352.38,216.09c4.68-.83,9.23,2.79,10.18,8.09,.95,5.3-2.08,10.27-6.75,11.11-4.68,.83-9.23-2.79-10.18-8.09s2.08-10.27,6.75-11.11Z"/><path class="cls-3" d="M360.6,224.53c-.73-4.07-4.24-6.86-7.84-6.22-.06,0-.13,.02-.19,.04-3.49,.73-5.73,4.5-5.01,8.5,.72,4.01,4.11,6.77,7.65,6.25,.06,0,.13-.02,.19-.03,3.59-.63,5.93-4.46,5.2-8.54Z"/></g></g><path class="cls-4" d="M395.08,233.41l-6.82-5.19s-4.45,2.52-6.82,7.79c-2.37,5.27-5.51,22.86-5.51,22.86l-12.74-21.16-16.23,11.52s18,45.56,28.84,46.11,18.47-9.49,18.47-9.49l.81-52.44Z"/></g><g><g><polygon class="cls-8" points="341.32 430.29 343.39 443.34 351.93 446.81 361.74 442.12 359.96 429.26 341.32 430.29"/><g><path class="cls-56" d="M367.26,459.35l-44.27-.64s-.3-.92-.42-2.25c-.18-2.09,.11-5.16,2.74-7.22,3.72-2.89,9.63-3.29,13.47-4.78,2.3-.89,3.69-3.16,3.69-3.16l6.3,.36s.52,3.51,2.86,3.3c2.34-.21,10.07-4,10.07-4,4,6.84,5.17,12.36,5.49,15.5,.18,1.85,.07,2.89,.07,2.89Z"/><path class="cls-15" d="M367.26,459.35l-44.27-.64s-.3-.92-.42-2.25h44.61c.19,1.85,.08,2.89,.08,2.89Z"/></g></g><g><g><polygon class="cls-8" points="394.26 430.29 396.33 443.34 404.87 446.81 414.68 442.12 412.9 429.26 394.26 430.29"/><g><path class="cls-56" d="M420.2,459.35l-44.27-.64s-.3-.92-.42-2.25c-.18-2.09,.11-5.16,2.74-7.22,3.72-2.89,9.63-3.29,13.47-4.78,2.3-.89,3.69-3.16,3.69-3.16l6.3,.36s.52,3.51,2.86,3.3c2.34-.21,10.07-4,10.07-4,4,6.84,5.17,12.36,5.49,15.5,.18,1.85,.07,2.89,.07,2.89Z"/><path class="cls-15" d="M420.2,459.35l-44.27-.64s-.3-.92-.42-2.25h44.61c.19,1.85,.08,2.89,.08,2.89Z"/></g></g><g><path class="cls-30" d="M391.66,301.29l-7.25,11.75s-41.51,6.32-48.23,16.49c-6.2,9.38,2.2,104.46,2.2,104.46h28.51s-2.18-70.23,0-76.73,67.55-6.13,71.3-14.95,5-39.77,5-39.77"/><path class="cls-31" d="M444.35,314.85s1.61,25.45-6.75,31.54c-7.26,5.29-25.72,6.67-25.72,6.67l3.56,79.16-27.26,1.78s-13.54-92.39-12.9-101.25,26.86-15.27,25.07-16.53c0,0-20.21-6.86-12.72-14.4,.17-.17,.36-.35,.55-.52,1.74-1.54,23.03,.05,23.03,.05l19.63-1.8,7.77,8.81,5.74,6.49Z"/></g></g></g><path class="cls-30" d="M443.34,322.91c-.17,1.25-.36,2.59-.56,3.95-3.36-4.27-8.79-10.52-13.58-13.15-9.93-5.46-41.67-9.19-41.67-9.19l.12-2.71c.17-.17,.36-.35,.55-.52,1.74-1.54,23.03,.05,23.03,.05l19.63-1.8,7.77,8.81,4.71,14.56Z"/><g><g><path class="cls-6" d="M430.19,220.65s-11.69,15.1-18.97,14.33-12.97-8.83-12.97-8.83c0,0,2.92-1.08,4.18-5.85,.74-2.75,.91-6.73-.35-12.44l21.64-3.21s-.15,3.61,.81,7.5c.82,3.32,2.44,6.86,5.66,8.5Z"/><path class="cls-5" d="M402.43,220.31c.74-2.75,.91-6.73-.35-12.44l21.64-3.21s-.15,3.61,.81,7.5c-5.84,4.91-13.88,7.87-22.1,8.15Z"/></g><g><g><path class="cls-5" d="M382.2,195.06c.33-2.92,3.85-4.93,7.85-4.47,4.01,.45,6.98,3.19,6.65,6.12-.33,2.92-3.85,4.93-7.85,4.47-4.01-.45-6.98-3.19-6.65-6.12Z"/><g><path class="cls-54" d="M390.42,195.84v-.08c0-.96-.78-1.74-1.74-1.74h-.97c-.96,0-1.74,.78-1.74,1.74v.08c0,.96,.78,1.74,1.74,1.74h.97c.96,0,1.74-.78,1.74-1.74Z"/><rect class="cls-54" x="385.97" y="195.8" width="1.46" height="4"/></g></g><g><path class="cls-6" d="M431.05,187.49c0-13.82-9.56-25.03-21.36-25.03s-21.36,7.38-21.36,25.03c0,13.82,5.36,25.81,18.06,26.65,11.77,.77,24.66-12.82,24.66-26.65Z"/><path class="cls-5" d="M428.53,194.03c-3.91-3.76-6.81-8.56-8.23-13.91-1.99,.64-4.28,.24-5.73-.87-4.34,1.76-9.48,1.43-13.42-.77-3.08,1.44-6.83,1.37-9.95-.31-1.5,2.04-2.62,4.35-3.31,6.79,.3-4.76,.61-9.52,.92-14.29,11.27-1.59,22.6-2.7,33.96-3.32,.64-.04,1.32-.06,1.9,.23,.85,.44,1.22,1.44,1.5,2.36,2.4,7.9,3.62,16.16,2.36,24.09Z"/></g><g><path class="cls-56" d="M433.96,169.14c-.47,7.1-.93,16.26-1.4,23.27-.66,2.41-2.73,2.32-5.54,3.22-2.61-5.82-4.21-12.08-5.18-18.96-2.73,.72-5.69,.52-8.48-.56-4.18,1.61-8.92,1.69-13.21-.03-3.24,1.07-6.77,1.28-9.82,.18-1.15,3.49-1.71,8.79-2.01,12.51-.4-3.41-1.72-13.96-2.05-21.19-.14-3.1-.11-5.59,.25-6.65,1.34-3.93,5.68-2.66,6.84-1.31,.79-1.82,2.48-3.23,4.41-3.68s4.07,.07,5.84,1.39c1.21-2.27,3.71-3.79,6.27-3.85,2.57-.04,5.12,1.39,6.01,3.84,1.19-.66,2.44-1.26,3.77-1.52,1.34-.25,2.79-.12,3.94,.61,.55,.35,1.02,.85,1.38,1.47,.39,.65,.65,1.42,.77,2.25,1.08-1.51,3.36-1.79,4.99-.93,1.64,.86,2.65,2.61,3.06,4.42,.41,1.8,.29,3.68,.16,5.52Z"/><path class="cls-13" d="M424.98,157.88c-1.42-.62-3.03-.78-4.54-.44-1.9,.43-3.61,1.65-4.56,3.5-.89-2.39-3.42-4.06-5.97-3.94-2.55,.13-4.91,2.03-6.08,5.01-1.37-1.62-3.59-2.5-5.7-2.25s-4.07,1.6-5,3.72c-.73-.86-2.05-1.02-3.11-.63-1.05,.4-1.88,1.26-2.5,2.2-.53,.79-.93,1.64-1.26,2.52-.14-3.1-.11-5.59,.25-6.65,1.34-3.93,5.68-2.66,6.84-1.31,.79-1.82,2.48-3.23,4.41-3.68s4.07,.07,5.84,1.39c1.21-2.27,3.71-3.79,6.27-3.85,2.57-.04,5.12,1.39,6.01,3.84,1.19-.66,2.44-1.26,3.77-1.52,1.34-.25,2.79-.12,3.94,.61,.56,.36,1.03,.86,1.39,1.48Z"/></g><g><path class="cls-72" d="M396.99,186.43c-1.84-.44-3.86-.07-5.43,.99"/><path class="cls-72" d="M411.1,186.79c2-.87,4.44-.63,6.24,.61"/><path class="cls-71" d="M402.54,194.43c.05,1.98,.25,3.95,.58,5.9"/><path class="cls-71" d="M405.33,205.83c2.4,.09,4.83-.81,6.59-2.44"/><path class="cls-44" d="M411.88,193.99c.6-.11,1.21,.45,1.34,1.24,.14,.79-.24,1.51-.84,1.62-.6,.11-1.21-.45-1.34-1.24s.24-1.51,.84-1.62Z"/><path class="cls-44" d="M395.14,194.22c.6-.11,1.21,.45,1.34,1.24,.14,.79-.24,1.51-.84,1.62-.6,.11-1.21-.45-1.34-1.24-.14-.79,.24-1.51,.84-1.62Z"/></g><g><path class="cls-6" d="M429.21,190.58c3.99-.55,7.56,1.37,7.96,4.28s-2.51,5.73-6.5,6.28c-3.99,.55-7.56-1.37-7.96-4.28-.4-2.92,2.51-5.73,6.5-6.28Z"/><g><path class="cls-54" d="M428.98,195.84v-.08c0-.96,.78-1.74,1.74-1.74h.97c.96,0,1.74,.78,1.74,1.74v.08c0,.96-.78,1.74-1.74,1.74h-.97c-.96,0-1.74-.78-1.74-1.74Z"/><rect class="cls-54" x="431.97" y="195.8" width="1.46" height="4"/></g></g></g></g><g><path class="cls-12" d="M427.53,217.34s-11.85,7.16-13.91,9.73c-2.06,2.58-2.69,6.1-2.69,6.1,0,0-2.84-5.99-3.48-6.49s-5.61-5.21-5.61-5.21l-5.83,4.42-7.81,4.06,.33,75.02,52.82,3.58,1.36-81.41-15.18-9.8Z"/><path class="cls-69" d="M410.87,233.61c-2.5,21.04,1.84,57.81-5.21,72.09"/><path class="cls-17" d="M411.89,230.05s.89-3.32,2.94-4.96,12.62-7.86,12.9-7.93,5.47,3.55,5.47,3.55l-7.84,11.13s-8.04-5.65-9.92-5.17c-1.8,.47-3.55,3.38-3.55,3.38Z"/><path class="cls-17" d="M409.43,230.06s-.61-2.34-1.68-3.66c-1.24-1.53-5.34-5.95-5.76-5.92-.42,.02-4.58,2.52-5.32,4.03s-.32,8.65-.32,8.65c0,0,7.02-6.68,9.76-5.92,1.82,.51,3.32,2.82,3.32,2.82Z"/></g><g><path class="cls-4" d="M432.07,219.41s-9.17,8.62-10.55,17.37c-1.38,8.75-.85,54.79,7.64,70.11,7.36,13.29,8.06,55.62,8.06,75.27l25.76-8.88s-.11-35.25-8.43-67.89c-6.45-25.3-.26-71.53-3.95-76.05-2.57-3.16-18.53-9.93-18.53-9.93Z"/><path class="cls-28" d="M421.2,268.54s-2.13-24.32-.07-32.15c2.06-7.83,8.02-17.78,9.63-18.13,2.66-.57,8.61,4.04,8.61,4.04,0,0-4.82,8.34-6.24,20.99-.13,1.14-9.58,4.63-9.58,4.63,0,0,7.38,5.4,7.28,5.93-.11,.55-9.63,14.69-9.63,14.69Z"/></g><g><g><ellipse class="cls-38" cx="404.29" cy="309.98" rx="10.01" ry="6.23"/><path class="cls-8" d="M418.01,301.82l-10.2-1.35c-.91-.12-1.89-.23-2.72,.16-1.15,.54-1.68,1.86-1.78,3.22,1.7,.15,3.4,.29,5.12,.57-2.08,2.86-4.63,5.38-7.5,7.45-.64,.46-1.31,.91-1.79,1.53-.49,.62-.76,1.46-.51,2.21,.26,.74,1,1.24,1.77,1.39s1.56,.02,2.48,.07c-.28,1.13,.29,2.4,1.31,2.95,1.02,.55,2.4,.32,3.4-.44,.52,.98,1.53,1.69,2.63,1.85s2.27-.24,3.23-.51c.8,.93,2.03,1.48,3.25,1.46,1.23-.02,2.43-.61,3.42-1.49,2.95-2.62,5.3-5.92,6.81-9.57-3.23-2.9-6.23-6.04-8.92-9.5Z"/></g><g><path class="cls-4" d="M434.49,238.61c-.25-4.83,2.2-13.92,5.68-14.87,5.42-1.47,14.63,6.67,17.05,13.15s9.73,46.19,7.68,51.6c-2.81,7.38-39.92,27.23-39.92,27.23l-11.5-16.81s25.73-13.96,27.26-18.4c.95-2.78-5.66-30.57-6.25-41.9Z"/><path class="cls-63" d="M446.94,230.29s-4.15,5.43-4.15,15.21,2.4,32.94,1.84,33.79c-.55,.85-18.69,12.61-18.69,12.61"/><path class="cls-63" d="M443.09,260.25c-2.74-3.25-4.63-7.04-5.48-11.01"/><path class="cls-63" d="M433.24,311.73c5.89-3.21,14.41-8.22,19.54-12.31"/></g></g><g><path class="cls-4" d="M400.36,221.12s-1.56,6-1.56,16.43c0,17.5-2.28,66.16-11.49,73.35-7.24,5.65-16.31,5.29-20.43,5.29,0,0,8.57-4.56,11.77-9.85,3.56-5.88,4.16-24.57,4.63-34.31,.5-10.32,1.43-38.76,2.61-41.24,2.56-5.35,14.47-9.67,14.47-9.67Z"/><path class="cls-28" d="M397.37,270.03s2.09-16.47,2.09-27.92c0-12.82,2.11-21.64,2.11-21.64,0,0-7.28,2.31-8.08,3.49s-4.57,7.95-6.5,20.78c-.32,2.12,8.28,3.87,8.28,3.87,0,0-6.63,5.15-6.63,6.44,.01,2.5,8.73,14.98,8.73,14.98Z"/><g><path class="cls-63" d="M385.49,235.88c0,27.9-2.53,50.22-3.75,57.97"/><path class="cls-63" d="M381.53,245.88c.72,4,2.46,7.95,3.53,9.16"/></g></g></g><g><path class="cls-76" d="M386.67,199.74s1.37,32.19,20.67,33.42c16.29,1.04,25.33-18.98,25.33-33.47"/><g><path class="cls-61" d="M408.56,233.56s-11.87,43.38-44.8,51.22c-40.3,9.6-79.79-1.19-79.79-1.19"/><path class="cls-61" d="M355.34,234.79s4.55,26.3-15.84,39.92c-18.06,12.07-55.53,8.34-55.53,8.34"/><path class="cls-61" d="M394.96,309.82s-73.86,.15-111.5-26.23"/></g></g></g></g><g><path class="cls-48" d="M549.59,124.65c-.45-7.88,5.27-15.68,12.92-17.61s16.39,2.22,19.73,9.37c2.86,6.12,1.88,13.29,.5,19.91-1.37,6.62-3.08,13.47-1.51,20.04,1.33,5.53,4.9,10.41,5.61,16.05,.97,7.76-4.49,15.82-12.06,17.79-4.28,1.11-9.81-.26-11.17-4.47-1.26-3.9,1.62-8.05,1.04-12.1-.49-3.4-3.26-5.92-5.54-8.48-8.4-9.46-8.52-23.09-9.52-40.5Z"/><g><path class="cls-24" d="M476.16,224.26c-3.83-4.37-6.63-12.24-6.63-14.89,0-3.13-.5-6.34,.6-9.27,.57-1.51,1.44-2.88,2.31-4.24,.99-1.55,1.97-3.1,2.96-4.65,.41-.64,.88-1.32,1.61-1.52,1.23-.33,2.36,1.06,2.3,2.34-.07,1.27-.91,2.35-2.36,3.48,.55-2.33,1.73-4.51,3.37-6.25,.43-.46,1.01-.92,1.63-.78,1.01,.24,.98,1.68,.71,2.68-.68,2.51-1.35,5.02-1.89,7.18,2.14,4.08,1.95,8.92,1.99,13.52,.04,4.6,.49,9.58,3.53,13.04-2.92,1.28-6.36-3.82-10.13-.64Z"/><path class="cls-24" d="M475.72,223.72s10.15,34.68,17.82,35.39c9.28,.87,16.82-7.71,16.82-7.71l6.06-31.06-13.74-8.23-7.58,24.89-10.82-12.23-8.56-1.05Z"/><path class="cls-36" d="M521.43,225.52c-7.56-2.86-15.15-5.66-22.7-8.56,2.06-9.87,4.92-21.7,7.42-25.48,4.68-7.07,12.24-7.43,12.24-7.43l3.45,10.21-.41,31.05v.21Z"/><g><polygon class="cls-34" points="514.46 245.61 492.36 188.48 465.26 195.51 490.34 259.12 514.46 245.61"/><polygon class="cls-3" points="510.78 242.47 490.87 191.62 468.77 197.61 490.54 253.25 510.78 242.47"/><polygon class="cls-11" points="483.77 190.24 485.15 193.93 476.48 196.34 474.93 192.57 483.77 190.24"/></g></g><g><g><g><g><path class="cls-41" d="M501.4,452.11c.08,3.75,39.41,2.48,41.18-.61,1.15-2.02-.97-7.1-2.59-10.39-.86-1.77-1.58-3.02-1.58-3.02l-5-7-3.99-.11c-8.85,5.11-17.67,10.67-22.99,15.02-3.14,2.58-5.06,4.72-5.03,6.11Z"/><path class="cls-24" d="M506.43,446.01c8.13,5.12,26.86-2.04,33.56-4.89-.86-1.77-1.58-3.02-1.58-3.02l-5-7-3.99-.11c-8.85,5.11-17.68,10.67-22.99,15.02Z"/></g><polygon class="cls-24" points="518.5 415.56 519.89 430.89 520.39 436.39 520.74 440.17 536.65 438.5 536.78 435.83 536.78 435.82 536.91 433.02 537.79 414.9 537.88 413.08 528.19 414.32 518.5 415.56"/></g><polygon class="cls-19" points="518.5 415.56 519.89 430.89 527.85 431.88 527.86 431.88 534.57 432.73 536.91 433.02 537.79 414.9 528.19 414.32 518.5 415.56"/></g><path class="cls-36" d="M507.26,262.18s-6.84,18.92-5.49,45.82,12.69,120.71,12.69,120.71l28.26-1.33-4.84-121.1-6.82-37.5"/></g><g><g><g><g><path class="cls-41" d="M572.11,451.73c2.49,2.8,31.6-23.68,30.95-27.17-.43-2.28-5.34-4.77-8.71-6.22-1.8-.78-3.16-1.27-3.16-1.27l-8.35-2.08-3.11,2.5c-3.42,9.63-6.53,19.59-7.75,26.34-.73,3.98-.79,6.86,.13,7.9Z"/><path class="cls-24" d="M571.98,443.82c9.51-1.38,19.12-18.98,22.37-25.49-1.8-.78-3.16-1.27-3.16-1.27l-8.35-2.08-3.11,2.5c-3.42,9.63-6.53,19.58-7.75,26.34Z"/></g><polygon class="cls-24" points="561.42 412.82 568.03 419.29 576.36 427.44 579.08 430.09 590.11 418.51 588.47 416.38 583.7 410.2 574.56 398.36 561.42 412.82"/></g><polygon class="cls-19" points="561.42 412.82 568.03 419.29 583.7 410.2 574.56 398.36 561.42 412.82"/></g><g><path class="cls-52" d="M503.5,279.96c2.75,7.64,23.46,21.1,23.46,21.1,0,0-.2,53.33,.57,66.77,.77,13.44,28.62,57.32,28.62,57.32l26.1-23.17s-20.23-33.83-21.62-41.78c-1.39-7.96,7.36-49.76,7.36-66.78,0-3.14-.29-6.39-.77-9.61-1.04-7.1-2.97-14.04-4.65-19.19-1.67-5.15-3.08-8.53-3.08-8.53,0,0-14.18,2.06-28.34,6.02-12.96,3.62-25.87,8.85-27.84,15.52-.2,.68-.12,1.47,.19,2.33Z"/><path class="cls-36" d="M503.5,279.96c6.9,4.08,14.09,7.67,21.49,10.72,.46-1.23,.92-2.46,1.56-3.69,.65,1.41,1.31,2.8,2.11,4.71,12.76-3.2,25.64-5.91,38.57-7.89-1.04-7.1-2.97-14.04-4.65-19.19-10.46-.98-20.94-1.82-31.42-2.51-12.96,3.62-25.87,8.85-27.84,15.52-.21,.68-.13,1.47,.18,2.33Z"/></g></g><path class="cls-43" d="M575.98,192.33c-.99-6-23.7-13.71-31.42-13.01-16.58,1.51-28.59,4.52-32.37,6.89s-7.23,24.51-7.23,30.68c0,7.3,2.51,21.63,1.84,27.41-1.3,11.21-8.1,34.95-8.1,34.95l24.99,8.76,3.1-5.46,2.83,6.92,41.3-9.47s-3.16-32.89-3.16-38.66c.01-5.53,9.5-41.27,8.22-49.01Z"/><g><path class="cls-60" d="M537.4,196.25c-8.3,43.23-8.76,55.61-10.65,85.98"/><g><circle class="cls-41" cx="538.5" cy="204.81" r="1.39"/><circle class="cls-41" cx="535.02" cy="223.72" r="1.39"/><circle class="cls-41" cx="532.34" cy="243.65" r="1.39"/><circle class="cls-41" cx="530.95" cy="266.5" r="1.39"/></g></g><g><g><g><g><path class="cls-41" d="M489.2,223.01l4.14,.33,.32,.03,27.76-7.29c1.9-1.01,2.22-2.57,1.77-3.84-.57-1.58-2.42-2.32-4.01-1.76l-26.48,9.36-.27,.24-3.23,2.93Z"/><g><path class="cls-26" d="M489.2,223.01l1.14,.09,3,.24c-.09-.07-.19-.14-.27-.23-.35-.35-.56-.87-.41-1.34,.06-.2,.18-.41,.1-.6-.04-.09-.12-.15-.18-.22-.2-.23-.23-.58-.16-.87l-2.37,2.16-.85,.77Z"/><path class="cls-35" d="M489.2,223.01l1.14,.09c-.12-.13-.2-.28-.25-.45-.04-.13-.05-.27-.04-.41l-.85,.77Z"/></g></g><g><path class="cls-24" d="M522,229.18c-2.73-5.06-5.45-10.12-8.36-15.19-2.16-1.68-4.59-2.95-7.07-3.9-2.96,.96-5.74,2.73-8.03,5.11-.56,.59-1.15,1.42-.89,2.21,.19,.58,.79,.86,1.35,.82,.55-.04,1.07-.34,1.57-.63,1.51-.88,3.02-1.77,4.77-2.62,.49,.42,.98,.84,1.35,1.27-1.02,.01-2.04,.03-3.26,.38-1.95,.92-3.86,1.97-5.71,3.15-.52,.33-1.09,.77-1.15,1.43-.05,.54,.28,1.03,.71,1.26s.92,.24,1.4,.2c1.74-.12,3.47-.75,4.9-1.83,.58,.17,1.16,.34,1.6,.62-.75,.14-1.5,.28-2.2,.63s-1.34,.93-1.65,1.72-.2,1.79,.21,2.62c-.4,.15-.62,.67-.6,1.14s.22,.89,.42,1.29c.43,.85,.9,1.67,1.41,2.45,.49,.73,1.05,1.45,1.82,1.77,.77,.31,1.78,.09,2.29-.87,2.06,3.56,5.92,5.65,9.66,5.25,2.23-2.41,4.09-5.24,5.46-8.28Z"/><g><path class="cls-67" d="M510.1,216.83c-.99-.41-2.04-.55-3.11-.66"/><path class="cls-67" d="M508.09,221.2c-1-.08-1.98-.05-2.73,.08"/><path class="cls-67" d="M501.68,226.12c1.39-.77,3.69-1.21,5.27-1.01"/><path class="cls-67" d="M506.45,231.94c-.49-.79-.92-2.09-1.11-3"/><path class="cls-67" d="M505.66,230.57c-.63,.08-1.29,.19-1.8,.14"/></g></g></g><g><path class="cls-24" d="M514.86,236.17s34.56,29.31,43.89,26.01c3.71-1.32,7.39-12.08,10.06-22.1,2.46-9.21,4.06-17.78,4.06-17.78l-19.58-8.27s-1.31,8.88-2.63,16.1c-.87,4.87-1.75,8.98-2.22,9.1-2,.56-27.37-10.73-27.37-10.73l-6.21,7.67Z"/><path class="cls-19" d="M550.66,230.14c4.67,3.06,12.01,7.57,18.14,9.95,2.46-9.21,4.06-17.78,4.06-17.78l-19.58-8.27s-1.3,8.88-2.62,16.1Z"/></g></g><path class="cls-50" d="M572.86,232.73c-8.57-1.63-15.37-3.04-23.56-5.97,1.16-9.62,3.87-27.02,6.07-32.38,1.56-3.8,7.69-10.48,14.6-7.59,6.91,2.89,9.56,7.45,8.83,19.48-.27,4.28-4.34,17.75-5.94,26.46Z"/></g><g><g><g><path class="cls-24" d="M531.08,183.7s2.01,9.1,5.89,11.76,18.57-13.7,18.57-13.7c-2.53-2.36-3.14-6.99-3.11-11.09,.03-4.18,.73-7.78,.73-7.78l-17.9,5.17c.18,4.42-.18,7.61-.74,9.9-1.22,4.97-3.44,5.74-3.44,5.74Z"/><path class="cls-19" d="M534.53,177.96c8.25,1.75,14.56-3.5,17.9-7.29,.03-4.18,.73-7.78,.73-7.78l-17.9,5.17c.19,4.43-.17,7.61-.73,9.9Z"/></g><g><path class="cls-41" d="M537.63,195.78c-.23-.04,.92-6.18,1.5-6.71s14.69-12.89,15.53-12.43c1.23,.66,3.26,4.58,3.26,4.58,0,0-2.9,3.93-8.37,8.37-3.76,3.05-9.76,6.56-11.92,6.19Z"/><path class="cls-41" d="M537.63,195.75c.31-.31-.32-6.4-.68-6.96-1.17-1.85-3.15-6.67-3.15-9.95,0,0-3.56,1.35-4,2.13-.43,.79,1.5,6.56,2.99,9.31,2.53,4.63,4.59,5.72,4.84,5.47Z"/></g></g><g><g><ellipse class="cls-19" cx="520.61" cy="154.06" rx="5.44" ry="7.45" transform="translate(308.91 654) rotate(-83.53)"/><g><path class="cls-24" d="M563.01,145.49c0-14.1-9.75-25.53-21.78-25.53s-21.78,11.43-21.78,25.53,6.01,28.12,18.2,27.62c12.01-.5,25.36-13.52,25.36-27.62Z"/><path class="cls-19" d="M558.18,151.54c-2.53-2.75-4.13-7.94-4.52-10.15-2.42-.7-5.35-3.02-6.82-6.15-3.69,3.69-17.71,5.77-22.39,4.55-3.33,4.11-3.43,6.15-4.61,11.4-.76-6.41-.42-12.95,.99-19.25,8.77-2.83,17.35-6.24,25.67-10.22,1.42-.68,3.12-1.37,4.48-.57,.87,.51,1.32,1.5,1.77,2.41,1.88,3.83,4.58,7.26,7.86,9.99,.85,.71,1.82,1.51,1.86,2.61,.03,.72-.35,1.38-.7,2.01-1.57,2.89-1.3,9.84-3.59,13.37Z"/></g><g><path class="cls-40" d="M515.75,136.85c-.07,5.34,4.28,16.43,4.28,16.43,0,0,.03-9.13,4.19-15.06,8.61,0,18.15-.4,23.43-5.3,1.53,3.88,4.16,6.14,7.33,7.2-.1,4.84,2.12,9.37,3.51,13.44,2.71-1.65,4.75-.95,6.96-3.56,1.28-4.73,2.64-12.12,2.25-16.69-.32-3.68-1.32-7.4-3.32-10.49-.47-.74-1.01-1.45-1.6-2.11-3.08-3.41-7.94-5.4-12.39-4.29-2.46-2.96-6.26-4.71-10.05-4.92-3.8-.21-7.57,.98-10.88,2.87-6.45,3.67-11.49,9.35-13.14,17.25-.36,1.7-.54,3.45-.57,5.23Z"/><path class="cls-10" d="M515.75,136.85c.18-.69,.4-1.37,.65-2.04,1.23-3.25,3.23-6.17,5.53-8.78,3.47-3.98,7.78-7.41,12.87-8.83,5.09-1.41,11-.52,14.8,3.15,4.8-2.04,10.69-.93,14.77,2.46-.47-.74-1.01-1.45-1.6-2.11-3.08-3.41-7.94-5.4-12.39-4.29-2.46-2.96-6.26-4.71-10.05-4.92-3.8-.21-7.57,.98-10.88,2.87-6.45,3.67-11.49,9.35-13.14,17.25-.35,1.71-.53,3.46-.56,5.24Z"/></g><path class="cls-24" d="M561.68,148.88c3.99-1.02,7.82,.51,8.57,3.42,.75,2.91-1.88,6.1-5.87,7.12-3.99,1.02-7.82-.51-8.57-3.42-.75-2.91,1.88-6.1,5.87-7.12Z"/></g><g><g><ellipse class="cls-37" cx="542.71" cy="154.93" rx=".95" ry="1.52"/><ellipse class="cls-37" cx="525.26" cy="154.93" rx=".95" ry="1.52"/><path class="cls-75" d="M528.06,145.72c-1.82-.63-3.91-.47-5.61,.45"/><path class="cls-75" d="M541.23,146.51c2.04-.89,4.53-.64,6.36,.62"/><path class="cls-73" d="M531.79,156.09c-.16,.98-.15,3.32,.02,4.27"/></g><path class="cls-73" d="M532.86,164.58c2.65,1.05,5.42,.48,6.85-1.69"/></g></g></g></g></g><g><g><circle class="cls-57" cx="225.44" cy="96.3" r="36.69"/><g><path class="cls-33" d="M201.47,83.96c8.03-14.96,23.91,5.12,23.91,5.12,0,0,15.91-17.16,23.91-6.01,8.31,11.57-23.91,38.52-23.91,38.52,0,0-30.74-24.9-23.91-37.63Z"/><polyline class="cls-66" points="198.82 100.75 209.95 100.87 213.41 87.33 220.54 113.07 226.18 81.89 232.31 109.97 235.97 89.61 239.89 100.29 252.06 100.62"/></g></g><g><circle class="cls-53" cx="327" cy="153.48" r="37.5"/><g><path class="cls-4" d="M347.01,155.14l-28.7,16.44c-5.46,3.13-12.42,1.24-15.54-4.21-1.56-2.73-1.87-5.83-1.11-8.65s2.59-5.33,5.33-6.9l28.7-16.44c5.45-3.12,12.41-1.23,15.54,4.23,1.56,2.73,1.87,5.83,1.1,8.64-.76,2.82-2.59,5.33-5.32,6.89Z"/><path class="cls-33" d="M347.01,155.14l-14.36,8.22-11.32-19.76,14.36-8.22c5.45-3.12,12.41-1.23,15.54,4.23,1.56,2.73,1.87,5.83,1.1,8.64-.76,2.82-2.59,5.33-5.32,6.89Z"/></g></g><g><circle class="cls-57" cx="422.37" cy="84.3" r="36.69"/><g><g><path class="cls-4" d="M441.07,65.89v25.15c0,6.13-3.11,11.87-8.3,15.25l-10.4,6.07-9.54-6.19c-5.68-3.28-9.17-9.3-9.17-15.79v-24.49l18.58-5.32,.13,.04,18.7,5.28Z"/><path class="cls-1" d="M441.07,65.89v25.15c0,6.13-3.11,11.87-8.3,15.25l-10.4,6.07V60.61l18.7,5.28Z"/></g><g><rect class="cls-33" x="418.05" y="72.25" width="8.63" height="28.42"/><rect class="cls-33" x="408.15" y="82.15" width="28.42" height="8.63"/></g></g></g></g></g></g></svg>