<?xml version="1.0" encoding="UTF-8"?><svg xmlns="http://www.w3.org/2000/svg" xmlns:xlink="http://www.w3.org/1999/xlink" viewBox="0 0 550 460.66"><defs><style>.cls-1{clip-path:url(#clippath);}.cls-2{fill:#fff;}.cls-3,.cls-4{fill:#f29e88;}.cls-5{fill:#e5e4e3;}.cls-6{fill:#946965;}.cls-7{fill:#dceeee;}.cls-8{fill:#244d7a;}.cls-9{fill:#6d3e3b;}.cls-10{fill:#6d3f3c;}.cls-11{fill:#376c94;}.cls-12{fill:#3991a5;}.cls-4{mix-blend-mode:multiply;}.cls-13{stroke:#e5e4e3;}.cls-13,.cls-14{fill:none;stroke-linecap:round;stroke-linejoin:round;stroke-width:2px;}.cls-14{stroke:#f9f8f6;}.cls-15{isolation:isolate;}</style><clipPath id="clippath"><path class="cls-3" d="M291.9,133.76s10.18-1.24,12.17-11.17,0-26.32,0-26.32l19.12,8.19s-4.97,24.09,18.62,30.54c23.59,6.46-38.74,51.65-49.91-1.24Z"/></clipPath></defs><g class="cls-15"><g id="Working_Layer"><g><path class="cls-7" d="M94.5,247.51S11.43,141.65,108.15,88.41c11.99-6.6,25.4-10.33,39.09-10.33,6.7,0,13.92,.85,20.53,3.39,19.81,7.62,44.2-8.13,60.46-22.86s57.41-52.84,100.59-11.68,50.8,2.54,90.43,2.54,66.04,32.01,40.64,62.49c-25.4,30.48-35.88,63.5,10,69.6,45.88,6.1,84.49,32.01,29.62,141.23,0,0-23.88,42.67-67.06,51.31-43.18,8.64-49.79,42.17-76.71,48.26-26.93,6.1-127.01,6.6-161.55-17.27,0,0-11.26-8.31-36.4,4.61-25.14,12.93-44.77,6.7-61.29-18.67s-28.25-52.67-4.55-74.93,18.07-48.28,2.55-68.58Z"/><path class="cls-9" d="M267.98,67.39s-7.43-4.1-1.82-14.25c5.61-10.15,15.46,6.36,8.79,10.91s-6.97,3.34-6.97,3.34Z"/><g><path class="cls-3" d="M291.9,133.76s10.18-1.24,12.17-11.17,0-26.32,0-26.32l19.12,8.19s-4.97,24.09,18.62,30.54c23.59,6.46-38.74,51.65-49.91-1.24Z"/><g class="cls-1"><path class="cls-4" d="M275.54,59.68s1.29,9.02,12.75,4.3c0,0,3.97-2.87,5.27-6.11,0,0,5.25,6.16,12.39,3.05,0,0,3.89-2.27,4.74-4.41,0,0,2.66,3.76,6.88,4.87s7.4-.45,8.43-1.36c0,0,1.21,5.45,6.57,9.13s11.22,7.67,12.78,11.22c0,0,.44,6.36-3.49,11.16s-13.59,14.09-25.24,15.27c0,0-.87-6.17-5.55-8.35s-13.13-5.96-22.59-4.46c0,0-5.38,.8-11.05,7.47,0,0-5.58-11.65-5.28-15.83,0,0-.7,11.65,3.68,22.6s19.02,16.63,37.54,13.14,27.93-15.24,31.99-28.78,5.05-22.7,5.85-25.79,.5-7.57-.5-9.66-2.09-6.37-2.19-8.17-3.98-14.24-12.25-16.63c0,0-3.09-1.79-5.68-1,0,0-1.17,.78-2.01-.6s-6.12-9.09-15.35-11.01-15.72,4.44-15.72,4.44c0,0-4.74-2.81-8.01-.88s-3.86,4.68-3.22,6.43c0,0-4.8-.82-7.66,2.11s-1.4,6.14-1.4,6.14c0,0-11.7-2.34-11.58,14.62,0,0,1.16,9.42,9.91,7.11Z"/></g></g><path class="cls-11" d="M294.13,130.78s4.18,2.85,7.23,7.13,9.63,9.86,10.78,10.7,2.37,.92,3.21,0,14.83-11.32,17.97-16.74c0,0,.65-1.36,1.12-1.36s2.18-.3,4.1,.66,18.95,122.99,5.79,154.23c-13.15,31.24-64.41,2.74-67.83-46.04s17.63-108.59,17.63-108.59Z"/><path class="cls-3" d="M88.74,172.03s-16.58-10.47-21.12-12.74-13.09-9.77-17.98-3.14,11.69,15.88,11.69,15.88c0,0-23.04-5.76-25.48-1.22s.35,7.16,2.79,8.73c0,0-6.18-.54-7.75,5.75,0,0-.39,3.38,3.3,5.74,0,0-6.53-.08-6.06,6.92s15.73,11.48,23.99,14,17.85,4.4,22.49,3.85,25.03-20.09,14.11-43.77Z"/><path class="cls-2" d="M299.02,247.91s3.4,4.82,6.23,0c2.83-4.82,11.62-19.55,15.02-41.94s13.6-57.24,14.45-60.92,2.58-15.12,4.38-14.84,29.64-5.42,49.91,23.23,61.89,137.3,13.78,146.76c0,0-4.55,83.11,2.22,91s-79.96,93.05-203.02,25.1c0,0,20.65-74.36,20.65-110.4s6.97-87.99,6.97-87.99c0,0-33.08,27.35-80.28,24.7,0,0-49.91-9.25-68.85-18.24-18.94-8.98-8.2-15.62,0-44.32,0,0,3.51-14.64,9.18-13.67s44.04,31.08,85.79,17.06,82.58-49.53,108.72-52.27c0,0,6.85-1.21,10.63-1.26s2.35-.83,1.42,5.36-9.7,87.88,2.8,112.63Z"/><path class="cls-13" d="M292.85,132.91s-25.05,21.66-34.51,44.16l19.61,8.9-19.61,13.91,32.15,72.57"/><path class="cls-13" d="M338.75,130.81l14.88,46.38-20.93,9.12s19.95,11.98,21.29,13.66l-14.75,29.21"/><line class="cls-13" x1="298.46" y1="323.52" x2="298.46" y2="414.2"/><path class="cls-13" d="M345.8,369.31l1.33,8.88s34.72-10.59,44.05-12.13l-2.1-6.8s-41.34,9.38-43.28,10.05Z"/><polygon class="cls-13" points="224.16 359.25 221.97 366.15 265.81 378.19 267.41 369.1 224.16 359.25"/><circle class="cls-5" cx="311.84" cy="351.84" r="4.61"/><circle class="cls-5" cx="311.84" cy="385.97" r="4.61"/><rect class="cls-8" x="289.42" y="226.86" width="71.29" height="100.27" rx="5.47" ry="5.47" transform="translate(-17.48 21.94) rotate(-3.76)"/><path class="cls-3" d="M284.19,274.2s-6.16-6.16,1.68-10.64,33.04,2.43,33.04,2.43v37.53s-5.25,3.15-8.72,3.94-3.63,.63-7.27,1.58-14.93,2.84-18.8-1.74c-3.87-4.58,.37-8.14,1.98-8.25,0,0-4.77-2.32-4.47-7.69,0,0-.13-3.59,2.45-5.83,0,0-3.49-2.12-3.09-6.38s3.19-4.94,3.19-4.94Z"/><path class="cls-2" d="M306.23,258.31s-3.18,14.9,9.67,50.63c0,0,58.93-.78,75.18-7.17l-17.7-55.13s5.83,3.31-67.15,11.66Z"/><path class="cls-14" d="M316.2,308.93s28.99,.63,78.49-6.14"/><path class="cls-13" d="M363.64,187.82s15.08,50.7,13.13,56.11-13.2,6.49-32.46,9.52"/><path class="cls-3" d="M268.66,55.59s-5.91,11.34,1.42,40.87,56.69,8.03,56.69,8.03c0,0,15.12-14.41,15.59-28.35s-9.68-39.45-27.64-39.45-46.06,18.9-46.06,18.9Z"/><path class="cls-9" d="M270.87,56.21s1.29,9.02,12.75,4.3c0,0,3.97-2.87,5.27-6.11,0,0,5.25,6.16,12.39,3.05,0,0,3.89-2.27,4.74-4.41,0,0,2.66,3.76,6.88,4.87s7.4-.45,8.43-1.36c0,0,1.21,5.45,6.57,9.13s11.22,7.67,12.78,11.22c0,0,.44,6.36-3.49,11.16s-13.59,14.09-25.24,15.27c0,0-.87-6.17-5.55-8.35s-13.13-5.96-22.59-4.46c0,0-5.38,.8-11.05,7.47,0,0-5.58-11.65-5.28-15.83,0,0-.7,11.65,3.68,22.6s19.02,16.63,37.54,13.14c18.52-3.49,27.93-15.24,31.99-28.78s5.05-22.7,5.85-25.79,.5-7.57-.5-9.66-2.09-6.37-2.19-8.17-3.98-14.24-12.25-16.63c0,0-3.09-1.79-5.68-1,0,0-1.17,.78-2.01-.6s-6.12-9.09-15.35-11.01-15.72,4.44-15.72,4.44c0,0-4.74-2.81-8.01-.88s-3.86,4.68-3.22,6.43c0,0-4.8-.82-7.66,2.11s-1.4,6.14-1.4,6.14c0,0-11.7-2.34-11.58,14.62,0,0,1.16,9.42,9.91,7.11Z"/><ellipse class="cls-6" cx="278.78" cy="80.08" rx="2.66" ry="4.14"/><ellipse class="cls-6" cx="311.31" cy="80.08" rx="2.66" ry="4.14"/><ellipse class="cls-2" cx="279.65" cy="77.96" rx=".86" ry="1.11"/><ellipse class="cls-2" cx="312.2" cy="77.96" rx=".86" ry="1.11"/><path class="cls-2" d="M283.68,98.72s-.29-.9,.2-1.18,.95-.13,1.63,.21,4.53,2.02,7.85,1.58,4.83-1.28,4.83-1.28c0,0,1.37-.57,1.9,.24s-.86,2.63-2.78,3.79-5.96,2.86-8.85,1.49-3.42-2.57-4.77-4.85Z"/><path class="cls-10" d="M280.8,70.73c-3.32-.47-6.88-.05-9.89,1.48-.28,.14-.52-.29-.24-.45,2.28-1.4,4.93-2.12,7.6-2.32,.9-.06,1.77-.08,2.73,0,.36,.03,.62,.34,.59,.7-.03,.39-.41,.67-.79,.58h0Z"/><path class="cls-10" d="M309.23,69.11c3.55-.06,7.14,.82,10.1,2.81,.12,.08,.15,.23,.07,.35-.07,.11-.22,.15-.33,.08-.75-.41-1.52-.8-2.33-1.07-2.34-.83-4.96-1.13-7.42-.88-.87,.09-.98-1.26-.09-1.29h0Z"/><circle class="cls-2" cx="153.35" cy="326.17" r="33.08"/><rect class="cls-12" x="147.49" y="302.57" width="11.72" height="47.21"/><rect class="cls-12" x="147.49" y="302.57" width="11.72" height="47.21" transform="translate(479.52 172.82) rotate(90)"/><circle class="cls-12" cx="411.41" cy="100.73" r="23.6"/><rect class="cls-2" x="407.23" y="83.89" width="8.36" height="33.68"/><rect class="cls-2" x="407.23" y="83.89" width="8.36" height="33.68" transform="translate(512.14 -310.68) rotate(90)"/><path class="cls-7" d="M394.62,27.33c29.75-8.83,76.16-5.43,94.67,22.94,10.19,15.69,7.19,35.97-2.21,51.22-1.7,2.85-3.63,5.54-5.73,8.09l-.72-.33c.86-5.52,2.23-13.31,2.54-18.79,.45-5.83,.36-11.54-.84-17.21-4.59-23.18-30.48-31.01-50.66-36.19-11.85-2.96-24.2-5.12-36.89-7.62l-.15-2.1h0Z"/><path class="cls-7" d="M66.8,323.77c-18.43,25.22-6.8,57.16,7.86,81.67,7.48,12.87,16.9,26.31,31.55,30.85,12.35,3.82,24.76,1.57,37.35-2.66l.61,.79c-8.74,8.62-21.11,14.19-33.67,14.58-22.96,.6-39.69-16.72-49.74-35.63-8.05-14.28-14.21-30.35-14.68-46.97-.41-12.52,2.95-25.51,10.97-35.3,2.61-3.2,5.62-6.02,9.15-8.14l.58,.81h0Z"/></g></g></g></svg>