<svg width="355" height="353" viewBox="0 0 355 353" fill="none" xmlns="http://www.w3.org/2000/svg">
<g clip-path="url(#clip0_24_1331)">
<path d="M177.5 215C183.299 215 188 209.851 188 203.5C188 197.149 183.299 192 177.5 192C171.701 192 167 197.149 167 203.5C167 209.851 171.701 215 177.5 215Z" stroke="#0C8FA3" stroke-width="11" stroke-miterlimit="10"/>
<path d="M157 90V76" stroke="#0C8FA3" stroke-width="11" stroke-miterlimit="10" stroke-linecap="round"/>
<path d="M197 90V76" stroke="#0C8FA3" stroke-width="11" stroke-miterlimit="10" stroke-linecap="round"/>
<path d="M154.744 84H141C141 84 142.036 143 177.079 143C214.768 143 217 84 217 84H203.256" stroke="#0C8FA3" stroke-width="11" stroke-linecap="round" stroke-linejoin="round"/>
<path d="M175.531 143.269C175.531 143.269 181.182 163.243 164.032 171.93C155.118 176.444 144.443 175.411 136.255 169.664C134.669 168.549 132.991 167.234 131.243 165.667C120.784 156.305 64.0326 106.544 101.822 56.1772C101.822 56.1772 132.631 15.2785 176.425 56.1772C176.425 56.1772 218.21 13.9226 255.001 59.2176C291.792 104.513 227.752 173.967 188.226 199" stroke="#0C8FA3" stroke-width="11" stroke-linecap="round" stroke-linejoin="round"/>
<path d="M85.7159 285L85.6709 266.1L76.4009 281.67H73.1159L63.8909 266.505V285H57.0509V253.5H63.0809L74.8709 273.075L86.4809 253.5H92.4659L92.5559 285H85.7159ZM123.249 272.985C123.249 273.075 123.204 273.705 123.114 274.875H104.799C105.129 276.375 105.909 277.56 107.139 278.43C108.369 279.3 109.899 279.735 111.729 279.735C112.989 279.735 114.099 279.555 115.059 279.195C116.049 278.805 116.964 278.205 117.804 277.395L121.539 281.445C119.259 284.055 115.929 285.36 111.549 285.36C108.819 285.36 106.404 284.835 104.304 283.785C102.204 282.705 100.584 281.22 99.4444 279.33C98.3044 277.44 97.7344 275.295 97.7344 272.895C97.7344 270.525 98.2894 268.395 99.3994 266.505C100.539 264.585 102.084 263.1 104.034 262.05C106.014 260.97 108.219 260.43 110.649 260.43C113.019 260.43 115.164 260.94 117.084 261.96C119.004 262.98 120.504 264.45 121.584 266.37C122.694 268.26 123.249 270.465 123.249 272.985ZM110.694 265.74C109.104 265.74 107.769 266.19 106.689 267.09C105.609 267.99 104.949 269.22 104.709 270.78H116.634C116.394 269.25 115.734 268.035 114.654 267.135C113.574 266.205 112.254 265.74 110.694 265.74ZM152.583 251.61V285H145.878V282.21C144.138 284.31 141.618 285.36 138.318 285.36C136.038 285.36 133.968 284.85 132.108 283.83C130.278 282.81 128.838 281.355 127.788 279.465C126.738 277.575 126.213 275.385 126.213 272.895C126.213 270.405 126.738 268.215 127.788 266.325C128.838 264.435 130.278 262.98 132.108 261.96C133.968 260.94 136.038 260.43 138.318 260.43C141.408 260.43 143.823 261.405 145.563 263.355V251.61H152.583ZM139.533 279.6C141.303 279.6 142.773 279 143.943 277.8C145.113 276.57 145.698 274.935 145.698 272.895C145.698 270.855 145.113 269.235 143.943 268.035C142.773 266.805 141.303 266.19 139.533 266.19C137.733 266.19 136.248 266.805 135.078 268.035C133.908 269.235 133.323 270.855 133.323 272.895C133.323 274.935 133.908 276.57 135.078 277.8C136.248 279 137.733 279.6 139.533 279.6ZM159.08 260.79H166.1V285H159.08V260.79ZM162.59 257.415C161.3 257.415 160.25 257.04 159.44 256.29C158.63 255.54 158.225 254.61 158.225 253.5C158.225 252.39 158.63 251.46 159.44 250.71C160.25 249.96 161.3 249.585 162.59 249.585C163.88 249.585 164.93 249.945 165.74 250.665C166.55 251.385 166.955 252.285 166.955 253.365C166.955 254.535 166.55 255.51 165.74 256.29C164.93 257.04 163.88 257.415 162.59 257.415Z" fill="#10AFBA"/>
<path d="M188.185 285.54C184.975 285.54 182.065 284.85 179.455 283.47C176.875 282.06 174.835 280.125 173.335 277.665C171.865 275.175 171.13 272.37 171.13 269.25C171.13 266.13 171.865 263.34 173.335 260.88C174.835 258.39 176.875 256.455 179.455 255.075C182.065 253.665 184.99 252.96 188.23 252.96C190.96 252.96 193.42 253.44 195.61 254.4C197.83 255.36 199.69 256.74 201.19 258.54L196.51 262.86C194.38 260.4 191.74 259.17 188.59 259.17C186.64 259.17 184.9 259.605 183.37 260.475C181.84 261.315 180.64 262.5 179.77 264.03C178.93 265.56 178.51 267.3 178.51 269.25C178.51 271.2 178.93 272.94 179.77 274.47C180.64 276 181.84 277.2 183.37 278.07C184.9 278.91 186.64 279.33 188.59 279.33C191.74 279.33 194.38 278.085 196.51 275.595L201.19 279.915C199.69 281.745 197.83 283.14 195.61 284.1C193.39 285.06 190.915 285.54 188.185 285.54ZM205.618 251.61H212.638V285H205.618V251.61ZM219.154 260.79H226.174V285H219.154V260.79ZM222.664 257.415C221.374 257.415 220.324 257.04 219.514 256.29C218.704 255.54 218.299 254.61 218.299 253.5C218.299 252.39 218.704 251.46 219.514 250.71C220.324 249.96 221.374 249.585 222.664 249.585C223.954 249.585 225.004 249.945 225.814 250.665C226.624 251.385 227.029 252.285 227.029 253.365C227.029 254.535 226.624 255.51 225.814 256.29C225.004 257.04 223.954 257.415 222.664 257.415ZM247.404 260.43C250.404 260.43 252.819 261.33 254.649 263.13C256.509 264.93 257.439 267.6 257.439 271.14V285H250.419V272.22C250.419 270.3 249.999 268.875 249.159 267.945C248.319 266.985 247.104 266.505 245.514 266.505C243.744 266.505 242.334 267.06 241.284 268.17C240.234 269.25 239.709 270.87 239.709 273.03V285H232.689V260.79H239.394V263.625C240.324 262.605 241.479 261.825 242.859 261.285C244.239 260.715 245.754 260.43 247.404 260.43ZM263.802 260.79H270.822V285H263.802V260.79ZM267.312 257.415C266.022 257.415 264.972 257.04 264.162 256.29C263.352 255.54 262.947 254.61 262.947 253.5C262.947 252.39 263.352 251.46 264.162 250.71C264.972 249.96 266.022 249.585 267.312 249.585C268.602 249.585 269.652 249.945 270.462 250.665C271.272 251.385 271.677 252.285 271.677 253.365C271.677 254.535 271.272 255.51 270.462 256.29C269.652 257.04 268.602 257.415 267.312 257.415ZM289.037 285.36C286.457 285.36 284.132 284.835 282.062 283.785C280.022 282.705 278.417 281.22 277.247 279.33C276.107 277.44 275.537 275.295 275.537 272.895C275.537 270.495 276.107 268.35 277.247 266.46C278.417 264.57 280.022 263.1 282.062 262.05C284.132 260.97 286.457 260.43 289.037 260.43C291.587 260.43 293.807 260.97 295.697 262.05C297.617 263.1 299.012 264.615 299.882 266.595L294.437 269.52C293.177 267.3 291.362 266.19 288.992 266.19C287.162 266.19 285.647 266.79 284.447 267.99C283.247 269.19 282.647 270.825 282.647 272.895C282.647 274.965 283.247 276.6 284.447 277.8C285.647 279 287.162 279.6 288.992 279.6C291.392 279.6 293.207 278.49 294.437 276.27L299.882 279.24C299.012 281.16 297.617 282.66 295.697 283.74C293.807 284.82 291.587 285.36 289.037 285.36Z" fill="#0C8FA3"/>
<path d="M25.5063 322L23.6401 317.232H17.6313L15.7856 322H14.022L19.9487 306.947H21.415L27.311 322H25.5063ZM23.0967 315.663L21.3535 311.018C21.1279 310.43 20.8955 309.709 20.6562 308.854C20.5059 309.511 20.2905 310.232 20.0103 311.018L18.2466 315.663H23.0967ZM36.7651 320.493H36.6729C35.8867 321.634 34.7109 322.205 33.1455 322.205C31.6758 322.205 30.5308 321.703 29.7104 320.698C28.897 319.693 28.4902 318.264 28.4902 316.412C28.4902 314.559 28.9004 313.12 29.7207 312.095C30.541 311.069 31.6826 310.557 33.1455 310.557C34.6699 310.557 35.8389 311.11 36.6523 312.218H36.7856L36.7139 311.408L36.6729 310.618V306.045H38.375V322H36.9907L36.7651 320.493ZM33.3608 320.78C34.5229 320.78 35.3638 320.465 35.8833 319.836C36.4097 319.201 36.6729 318.179 36.6729 316.771V316.412C36.6729 314.819 36.4062 313.684 35.873 313.007C35.3467 312.324 34.5024 311.982 33.3403 311.982C32.3423 311.982 31.5767 312.372 31.0435 313.151C30.5171 313.923 30.2539 315.017 30.2539 316.432C30.2539 317.868 30.5171 318.951 31.0435 319.683C31.5698 320.414 32.3423 320.78 33.3608 320.78ZM44.4556 322L40.1899 310.762H42.0151L44.4351 317.427C44.9819 318.985 45.3032 319.997 45.3989 320.462H45.481C45.5562 320.1 45.792 319.351 46.1885 318.216C46.5918 317.075 47.4907 314.59 48.8853 310.762H50.7104L46.4448 322H44.4556ZM59.4263 322L59.0879 320.4H59.0059C58.4453 321.104 57.8848 321.583 57.3242 321.836C56.7705 322.082 56.0767 322.205 55.2427 322.205C54.1284 322.205 53.2534 321.918 52.6177 321.344C51.9888 320.77 51.6743 319.953 51.6743 318.893C51.6743 316.624 53.4893 315.434 57.1191 315.325L59.0264 315.263V314.566C59.0264 313.684 58.835 313.035 58.4521 312.618C58.0762 312.194 57.4712 311.982 56.6372 311.982C55.7007 311.982 54.6411 312.269 53.4585 312.843L52.9355 311.541C53.4893 311.24 54.0942 311.004 54.7505 310.833C55.4136 310.663 56.0767 310.577 56.7397 310.577C58.0796 310.577 59.0708 310.875 59.7134 311.469C60.3628 312.064 60.6875 313.018 60.6875 314.33V322H59.4263ZM55.5811 320.8C56.6406 320.8 57.4712 320.51 58.0728 319.929C58.6812 319.348 58.9854 318.534 58.9854 317.488V316.473L57.2832 316.545C55.9297 316.593 54.9521 316.805 54.3506 317.181C53.7559 317.55 53.4585 318.127 53.4585 318.914C53.4585 319.529 53.6431 319.997 54.0122 320.318C54.3882 320.64 54.9111 320.8 55.5811 320.8ZM71.895 322V314.73C71.895 313.814 71.6865 313.13 71.2695 312.679C70.8525 312.228 70.1997 312.002 69.311 312.002C68.1353 312.002 67.2739 312.32 66.7271 312.956C66.1802 313.592 65.9067 314.641 65.9067 316.104V322H64.2046V310.762H65.5889L65.8657 312.3H65.9478C66.2964 311.746 66.7852 311.319 67.4141 311.018C68.043 310.71 68.7437 310.557 69.5161 310.557C70.8696 310.557 71.8882 310.885 72.5718 311.541C73.2554 312.19 73.5972 313.233 73.5972 314.668V322H71.895ZM81.5952 322.205C79.9683 322.205 78.707 321.706 77.8115 320.708C76.9229 319.703 76.4785 318.285 76.4785 316.453C76.4785 314.573 76.9297 313.12 77.832 312.095C78.7412 311.069 80.0332 310.557 81.708 310.557C82.248 310.557 82.7881 310.615 83.3281 310.731C83.8682 310.847 84.292 310.984 84.5996 311.141L84.0767 312.587C83.7007 312.437 83.2905 312.313 82.8462 312.218C82.4019 312.115 82.0088 312.064 81.667 312.064C79.3838 312.064 78.2422 313.52 78.2422 316.432C78.2422 317.813 78.519 318.873 79.0728 319.611C79.6333 320.349 80.4604 320.718 81.5542 320.718C82.4907 320.718 83.4512 320.517 84.4355 320.113V321.621C83.6836 322.01 82.7368 322.205 81.5952 322.205ZM91.8594 322.205C90.1982 322.205 88.8857 321.699 87.9219 320.688C86.9648 319.676 86.4863 318.271 86.4863 316.473C86.4863 314.662 86.9307 313.223 87.8193 312.156C88.7148 311.09 89.9146 310.557 91.4185 310.557C92.8267 310.557 93.9409 311.021 94.7612 311.951C95.5815 312.874 95.9917 314.094 95.9917 315.612V316.688H88.25C88.2842 318.008 88.6157 319.009 89.2446 319.693C89.8804 320.376 90.7725 320.718 91.9209 320.718C93.1309 320.718 94.3271 320.465 95.5098 319.959V321.477C94.9082 321.737 94.3374 321.921 93.7974 322.031C93.2642 322.147 92.6182 322.205 91.8594 322.205ZM91.3979 311.982C90.4956 311.982 89.7744 312.276 89.2344 312.864C88.7012 313.452 88.3867 314.265 88.291 315.304H94.1665C94.1665 314.231 93.9272 313.411 93.4487 312.843C92.9702 312.269 92.2866 311.982 91.3979 311.982ZM106.553 320.493H106.461C105.675 321.634 104.499 322.205 102.934 322.205C101.464 322.205 100.319 321.703 99.4985 320.698C98.6851 319.693 98.2783 318.264 98.2783 316.412C98.2783 314.559 98.6885 313.12 99.5088 312.095C100.329 311.069 101.471 310.557 102.934 310.557C104.458 310.557 105.627 311.11 106.44 312.218H106.574L106.502 311.408L106.461 310.618V306.045H108.163V322H106.779L106.553 320.493ZM103.149 320.78C104.311 320.78 105.152 320.465 105.671 319.836C106.198 319.201 106.461 318.179 106.461 316.771V316.412C106.461 314.819 106.194 313.684 105.661 313.007C105.135 312.324 104.291 311.982 103.128 311.982C102.13 311.982 101.365 312.372 100.832 313.151C100.305 313.923 100.042 315.017 100.042 316.432C100.042 317.868 100.305 318.951 100.832 319.683C101.358 320.414 102.13 320.78 103.149 320.78ZM124.128 322L119.042 308.711H118.96C119.056 309.764 119.104 311.015 119.104 312.464V322H117.494V307.009H120.119L124.867 319.375H124.949L129.737 307.009H132.342V322H130.599V312.341C130.599 311.233 130.646 310.03 130.742 308.731H130.66L125.533 322H124.128ZM140.955 322.205C139.294 322.205 137.981 321.699 137.018 320.688C136.061 319.676 135.582 318.271 135.582 316.473C135.582 314.662 136.026 313.223 136.915 312.156C137.811 311.09 139.01 310.557 140.514 310.557C141.922 310.557 143.037 311.021 143.857 311.951C144.677 312.874 145.087 314.094 145.087 315.612V316.688H137.346C137.38 318.008 137.711 319.009 138.34 319.693C138.976 320.376 139.868 320.718 141.017 320.718C142.227 320.718 143.423 320.465 144.605 319.959V321.477C144.004 321.737 143.433 321.921 142.893 322.031C142.36 322.147 141.714 322.205 140.955 322.205ZM140.494 311.982C139.591 311.982 138.87 312.276 138.33 312.864C137.797 313.452 137.482 314.265 137.387 315.304H143.262C143.262 314.231 143.023 313.411 142.544 312.843C142.066 312.269 141.382 311.982 140.494 311.982ZM155.649 320.493H155.557C154.771 321.634 153.595 322.205 152.029 322.205C150.56 322.205 149.415 321.703 148.594 320.698C147.781 319.693 147.374 318.264 147.374 316.412C147.374 314.559 147.784 313.12 148.604 312.095C149.425 311.069 150.566 310.557 152.029 310.557C153.554 310.557 154.723 311.11 155.536 312.218H155.669L155.598 311.408L155.557 310.618V306.045H157.259V322H155.875L155.649 320.493ZM152.245 320.78C153.407 320.78 154.248 320.465 154.767 319.836C155.293 319.201 155.557 318.179 155.557 316.771V316.412C155.557 314.819 155.29 313.684 154.757 313.007C154.23 312.324 153.386 311.982 152.224 311.982C151.226 311.982 150.46 312.372 149.927 313.151C149.401 313.923 149.138 315.017 149.138 316.432C149.138 317.868 149.401 318.951 149.927 319.683C150.454 320.414 151.226 320.78 152.245 320.78ZM162.581 322H160.878V310.762H162.581V322ZM160.735 307.716C160.735 307.327 160.831 307.043 161.022 306.865C161.213 306.681 161.453 306.588 161.74 306.588C162.013 306.588 162.249 306.681 162.447 306.865C162.646 307.05 162.745 307.333 162.745 307.716C162.745 308.099 162.646 308.386 162.447 308.578C162.249 308.762 162.013 308.854 161.74 308.854C161.453 308.854 161.213 308.762 161.022 308.578C160.831 308.386 160.735 308.099 160.735 307.716ZM170.681 322.205C169.054 322.205 167.793 321.706 166.897 320.708C166.009 319.703 165.564 318.285 165.564 316.453C165.564 314.573 166.016 313.12 166.918 312.095C167.827 311.069 169.119 310.557 170.794 310.557C171.334 310.557 171.874 310.615 172.414 310.731C172.954 310.847 173.378 310.984 173.686 311.141L173.163 312.587C172.787 312.437 172.376 312.313 171.932 312.218C171.488 312.115 171.095 312.064 170.753 312.064C168.47 312.064 167.328 313.52 167.328 316.432C167.328 317.813 167.605 318.873 168.159 319.611C168.719 320.349 169.546 320.718 170.64 320.718C171.577 320.718 172.537 320.517 173.521 320.113V321.621C172.77 322.01 171.823 322.205 170.681 322.205ZM177.9 322H176.198V310.762H177.9V322ZM176.054 307.716C176.054 307.327 176.15 307.043 176.341 306.865C176.533 306.681 176.772 306.588 177.059 306.588C177.333 306.588 177.568 306.681 177.767 306.865C177.965 307.05 178.064 307.333 178.064 307.716C178.064 308.099 177.965 308.386 177.767 308.578C177.568 308.762 177.333 308.854 177.059 308.854C176.772 308.854 176.533 308.762 176.341 308.578C176.15 308.386 176.054 308.099 176.054 307.716ZM189.2 322V314.73C189.2 313.814 188.991 313.13 188.574 312.679C188.157 312.228 187.504 312.002 186.616 312.002C185.44 312.002 184.579 312.32 184.032 312.956C183.485 313.592 183.211 314.641 183.211 316.104V322H181.509V310.762H182.894L183.17 312.3H183.252C183.601 311.746 184.09 311.319 184.719 311.018C185.348 310.71 186.048 310.557 186.821 310.557C188.174 310.557 189.193 310.885 189.876 311.541C190.56 312.19 190.902 313.233 190.902 314.668V322H189.2ZM199.156 322.205C197.495 322.205 196.183 321.699 195.219 320.688C194.262 319.676 193.783 318.271 193.783 316.473C193.783 314.662 194.228 313.223 195.116 312.156C196.012 311.09 197.211 310.557 198.715 310.557C200.124 310.557 201.238 311.021 202.058 311.951C202.878 312.874 203.289 314.094 203.289 315.612V316.688H195.547C195.581 318.008 195.913 319.009 196.542 319.693C197.177 320.376 198.069 320.718 199.218 320.718C200.428 320.718 201.624 320.465 202.807 319.959V321.477C202.205 321.737 201.634 321.921 201.094 322.031C200.561 322.147 199.915 322.205 199.156 322.205ZM198.695 311.982C197.792 311.982 197.071 312.276 196.531 312.864C195.998 313.452 195.684 314.265 195.588 315.304H201.463C201.463 314.231 201.224 313.411 200.746 312.843C200.267 312.269 199.583 311.982 198.695 311.982ZM207.985 319.56L208.139 319.795C207.961 320.479 207.705 321.272 207.37 322.174C207.035 323.083 206.686 323.928 206.324 324.707H205.042C205.227 323.996 205.428 323.118 205.647 322.072C205.873 321.026 206.03 320.188 206.119 319.56H207.985ZM221.674 322H219.931V308.557H215.183V307.009H226.421V308.557H221.674V322ZM233.558 310.557C234.057 310.557 234.505 310.598 234.901 310.68L234.666 312.259C234.201 312.156 233.791 312.105 233.435 312.105C232.526 312.105 231.747 312.474 231.097 313.212C230.455 313.951 230.133 314.87 230.133 315.971V322H228.431V310.762H229.836L230.031 312.843H230.113C230.53 312.112 231.032 311.548 231.62 311.151C232.208 310.755 232.854 310.557 233.558 310.557ZM238.603 310.762V318.052C238.603 318.968 238.812 319.652 239.229 320.103C239.646 320.554 240.298 320.78 241.187 320.78C242.363 320.78 243.221 320.458 243.761 319.816C244.308 319.173 244.581 318.124 244.581 316.668V310.762H246.283V322H244.878L244.632 320.493H244.54C244.191 321.046 243.706 321.47 243.084 321.764C242.469 322.058 241.765 322.205 240.972 322.205C239.604 322.205 238.579 321.88 237.896 321.231C237.219 320.582 236.88 319.542 236.88 318.114V310.762H238.603ZM257.152 318.934C257.152 319.98 256.763 320.787 255.983 321.354C255.204 321.921 254.11 322.205 252.702 322.205C251.212 322.205 250.05 321.969 249.216 321.498V319.918C249.756 320.192 250.333 320.407 250.949 320.564C251.571 320.722 252.169 320.8 252.743 320.8C253.632 320.8 254.315 320.66 254.794 320.38C255.272 320.093 255.512 319.659 255.512 319.078C255.512 318.64 255.32 318.268 254.938 317.96C254.562 317.646 253.823 317.276 252.723 316.853C251.677 316.463 250.932 316.125 250.487 315.837C250.05 315.543 249.722 315.212 249.503 314.843C249.291 314.474 249.185 314.033 249.185 313.52C249.185 312.604 249.558 311.883 250.303 311.356C251.048 310.823 252.07 310.557 253.369 310.557C254.579 310.557 255.761 310.803 256.917 311.295L256.312 312.679C255.184 312.214 254.162 311.982 253.246 311.982C252.439 311.982 251.831 312.108 251.42 312.361C251.01 312.614 250.805 312.963 250.805 313.407C250.805 313.708 250.88 313.964 251.031 314.176C251.188 314.388 251.438 314.59 251.779 314.781C252.121 314.973 252.777 315.25 253.748 315.612C255.081 316.097 255.98 316.586 256.445 317.078C256.917 317.57 257.152 318.189 257.152 318.934ZM263.561 320.8C263.862 320.8 264.152 320.78 264.433 320.739C264.713 320.691 264.935 320.643 265.099 320.595V321.897C264.915 321.986 264.641 322.058 264.279 322.113C263.923 322.174 263.602 322.205 263.315 322.205C261.141 322.205 260.054 321.06 260.054 318.77V312.084H258.444V311.264L260.054 310.557L260.772 308.157H261.756V310.762H265.017V312.084H261.756V318.698C261.756 319.375 261.917 319.895 262.238 320.257C262.56 320.619 263 320.8 263.561 320.8ZM272.103 322.205C270.441 322.205 269.129 321.699 268.165 320.688C267.208 319.676 266.729 318.271 266.729 316.473C266.729 314.662 267.174 313.223 268.062 312.156C268.958 311.09 270.158 310.557 271.662 310.557C273.07 310.557 274.184 311.021 275.004 311.951C275.825 312.874 276.235 314.094 276.235 315.612V316.688H268.493C268.527 318.008 268.859 319.009 269.488 319.693C270.124 320.376 271.016 320.718 272.164 320.718C273.374 320.718 274.57 320.465 275.753 319.959V321.477C275.151 321.737 274.581 321.921 274.041 322.031C273.507 322.147 272.861 322.205 272.103 322.205ZM271.641 311.982C270.739 311.982 270.018 312.276 269.478 312.864C268.944 313.452 268.63 314.265 268.534 315.304H274.41C274.41 314.231 274.17 313.411 273.692 312.843C273.213 312.269 272.53 311.982 271.641 311.982ZM286.796 320.493H286.704C285.918 321.634 284.742 322.205 283.177 322.205C281.707 322.205 280.562 321.703 279.742 320.698C278.928 319.693 278.521 318.264 278.521 316.412C278.521 314.559 278.932 313.12 279.752 312.095C280.572 311.069 281.714 310.557 283.177 310.557C284.701 310.557 285.87 311.11 286.684 312.218H286.817L286.745 311.408L286.704 310.618V306.045H288.406V322H287.022L286.796 320.493ZM283.392 320.78C284.554 320.78 285.395 320.465 285.915 319.836C286.441 319.201 286.704 318.179 286.704 316.771V316.412C286.704 314.819 286.438 313.684 285.904 313.007C285.378 312.324 284.534 311.982 283.372 311.982C282.374 311.982 281.608 312.372 281.075 313.151C280.548 313.923 280.285 315.017 280.285 316.432C280.285 317.868 280.548 318.951 281.075 319.683C281.601 320.414 282.374 320.78 283.392 320.78ZM304.156 308.352C302.509 308.352 301.207 308.902 300.25 310.003C299.299 311.097 298.824 312.597 298.824 314.504C298.824 316.466 299.282 317.984 300.198 319.057C301.121 320.124 302.434 320.657 304.136 320.657C305.182 320.657 306.375 320.469 307.714 320.093V321.621C306.675 322.01 305.394 322.205 303.869 322.205C301.661 322.205 299.956 321.535 298.752 320.195C297.556 318.855 296.958 316.952 296.958 314.484C296.958 312.939 297.245 311.585 297.819 310.423C298.4 309.261 299.234 308.366 300.321 307.737C301.415 307.108 302.7 306.793 304.177 306.793C305.749 306.793 307.123 307.081 308.299 307.655L307.561 309.152C306.426 308.619 305.291 308.352 304.156 308.352ZM317.64 322L317.302 320.4H317.22C316.659 321.104 316.099 321.583 315.538 321.836C314.984 322.082 314.291 322.205 313.457 322.205C312.342 322.205 311.467 321.918 310.832 321.344C310.203 320.77 309.888 319.953 309.888 318.893C309.888 316.624 311.703 315.434 315.333 315.325L317.24 315.263V314.566C317.24 313.684 317.049 313.035 316.666 312.618C316.29 312.194 315.685 311.982 314.851 311.982C313.915 311.982 312.855 312.269 311.672 312.843L311.149 311.541C311.703 311.24 312.308 311.004 312.964 310.833C313.627 310.663 314.291 310.577 314.954 310.577C316.293 310.577 317.285 310.875 317.927 311.469C318.577 312.064 318.901 313.018 318.901 314.33V322H317.64ZM313.795 320.8C314.854 320.8 315.685 320.51 316.287 319.929C316.895 319.348 317.199 318.534 317.199 317.488V316.473L315.497 316.545C314.144 316.593 313.166 316.805 312.564 317.181C311.97 317.55 311.672 318.127 311.672 318.914C311.672 319.529 311.857 319.997 312.226 320.318C312.602 320.64 313.125 320.8 313.795 320.8ZM327.545 310.557C328.044 310.557 328.492 310.598 328.889 310.68L328.653 312.259C328.188 312.156 327.778 312.105 327.422 312.105C326.513 312.105 325.734 312.474 325.084 313.212C324.442 313.951 324.121 314.87 324.121 315.971V322H322.418V310.762H323.823L324.018 312.843H324.1C324.517 312.112 325.02 311.548 325.607 311.151C326.195 310.755 326.841 310.557 327.545 310.557ZM335.738 322.205C334.077 322.205 332.765 321.699 331.801 320.688C330.844 319.676 330.365 318.271 330.365 316.473C330.365 314.662 330.81 313.223 331.698 312.156C332.594 311.09 333.793 310.557 335.297 310.557C336.706 310.557 337.82 311.021 338.64 311.951C339.46 312.874 339.871 314.094 339.871 315.612V316.688H332.129C332.163 318.008 332.495 319.009 333.124 319.693C333.759 320.376 334.651 320.718 335.8 320.718C337.01 320.718 338.206 320.465 339.389 319.959V321.477C338.787 321.737 338.216 321.921 337.676 322.031C337.143 322.147 336.497 322.205 335.738 322.205ZM335.277 311.982C334.375 311.982 333.653 312.276 333.113 312.864C332.58 313.452 332.266 314.265 332.17 315.304H338.045C338.045 314.231 337.806 313.411 337.328 312.843C336.849 312.269 336.166 311.982 335.277 311.982Z" fill="#0C8FA3"/>
</g>
<defs>
<clipPath id="clip0_24_1331">
<rect width="355" height="353" fill="white"/>
</clipPath>
</defs>
</svg>
