<svg xmlns="http://www.w3.org/2000/svg" xmlns:xlink="http://www.w3.org/1999/xlink" viewBox="0 0 550 550"><defs><style>.cls-1,.cls-9{fill:#f29e88;}.cls-2{fill:#376c94;}.cls-3{isolation:isolate;}.cls-4{fill:#dceeee;}.cls-5{fill:#fff;}.cls-6{fill:#0bbee9;}.cls-7{fill:#244d7a;}.cls-8{clip-path:url(#clip-path);}.cls-9{mix-blend-mode:multiply;}.cls-10{clip-path:url(#clip-path-2);}.cls-11{fill:#a0d8e5;}.cls-12,.cls-18,.cls-19{fill:none;}.cls-12,.cls-17{stroke:#244d7a;}.cls-12,.cls-17,.cls-18,.cls-19{stroke-linecap:round;}.cls-12,.cls-19{stroke-linejoin:round;}.cls-12{stroke-width:2px;}.cls-13{fill:#3991a5;}.cls-14{fill:#76cfe7;}.cls-15{fill:#61ccef;}.cls-16{fill:#6bc7d5;}.cls-17{fill:#231f20;stroke-width:14px;}.cls-17,.cls-18{stroke-miterlimit:10;}.cls-18{stroke:#348091;stroke-width:3px;}.cls-19{stroke:#376c94;stroke-width:6px;}</style><clipPath id="clip-path"><polygon class="cls-1" points="350.39 276.01 341 348.02 393.33 315.82 384.83 251.86 350.39 276.01"/></clipPath><clipPath id="clip-path-2"><path class="cls-2" d="M347.05,301.85s19,14.13,44.7,0c0,0,85.57,28.45,78.41,158.56,0,0-.89,16.71-4.45,21.46s-106.83,2.67-106.83,2.67L216.64,485s-5-2.34-3-13.55c0,0,5-.8,8-3.69s24.51-20,43.89-21.78c0,0-2.63-60.59,27.89-96.83S347.05,301.85,347.05,301.85Z"/></clipPath></defs><g class="cls-3"><g id="Working_Layer" data-name="Working Layer"><path class="cls-4" d="M121.68,477C77,457-8.15,399.68,73.72,274.24a102,102,0,0,1,16.6-19.54c16.83-15.38,53.75-46.67,86.61-57.62C221.18,182.33,308.63,117,308.63,117S414,34.83,460.34,138.08c0,0,13.32,30.33,10.31,57.09S448.88,269.9,491.5,316.43q1.32,1.45,2.61,3c54.52,64.42,7.16,163.46-77.23,164.15L163.32,485.6A99.82,99.82,0,0,1,121.68,477Z"/><path class="cls-4" d="M315.13,94.53c40-29,112.9-47.87,143.37,3.44a72.16,72.16,0,0,1,6.13,14.19c.56,1.77,1,3.58,1.42,5.38l-.93.36a114.51,114.51,0,0,0-12.39-17.48C423.73,66.31,374,76,336.15,88.19q-10.29,3.3-20.52,7.21l-.5-.87Z"/><path class="cls-4" d="M40,300c-13.29,40.67-19.65,83.77-1.37,123.81.5,1.28,1.44,3,2,4.28,1.31,2.87,2.94,5.72,4.42,8.5s3.33,5.52,4.89,8.39l-.75.65a92,92,0,0,1-13.51-14.49c-20.66-27-24.59-64.34-14.55-96.33a116.38,116.38,0,0,1,12.22-27.21,72.61,72.61,0,0,1,5.77-8.1l.86.5Z"/><polygon class="cls-5" points="309.93 222.7 146.94 222.7 163.83 172.44 326.81 172.44 309.93 222.7"/><polygon class="cls-5" points="296 219.36 267.41 241.93 272.56 208.82 296 219.36"/><polygon class="cls-5" points="215.97 290 64.78 290 52.93 238.86 204.12 238.86 215.97 290"/><polygon class="cls-5" points="76.16 285.7 104.12 310.65 98.1 260.31 76.16 285.7"/><circle class="cls-6" cx="332.09" cy="244.03" r="12.26"/><path class="cls-1" d="M214.47,471.85s-20.37-1.9-41.74,16.68l44.23-.69S212.73,476.66,214.47,471.85Z"/><path class="cls-7" d="M329.26,262.29s4.27,47.22-43.7,86.89c0,0,36.92,25.37,55.75,22.1s85.56-41.11,85.56-41.11l-26.31-94.7S375.55,219.09,329.26,262.29Z"/><polygon class="cls-1" points="350.39 276.01 341 348.02 393.33 315.82 384.83 251.86 350.39 276.01"/><g class="cls-8"><path class="cls-9" d="M329.14,229.35s-5,33.33,4.58,45.83,32.91,17.92,46.25,3.75a59.69,59.69,0,0,0,15.41-30L378.3,206l-32.5-2.08Z"/></g><path class="cls-1" d="M327.48,226.08s-5,33.34,4.59,45.83,32.91,17.92,46.24,3.75a59.71,59.71,0,0,0,15.42-30l-17.08-42.92-32.5-2.08Z"/><path class="cls-7" d="M342.43,219.05a24.53,24.53,0,0,1-15.74,13.62s-7-19.5,6.58-35.94,43.7-19.73,60.14,0,20.21,38.53,20.21,38.53l-23.5,10.33S373.68,247.94,342.43,219.05Z"/><path class="cls-2" d="M347.05,301.85s19,14.13,44.7,0c0,0,85.57,28.45,78.41,158.56,0,0-.89,16.71-4.45,21.46s-106.83,2.67-106.83,2.67L216.64,485s-5-2.34-3-13.55c0,0,5-.8,8-3.69s24.51-20,43.89-21.78c0,0-2.63-60.59,27.89-96.83S347.05,301.85,347.05,301.85Z"/><g class="cls-10"><rect class="cls-2" x="208.74" y="464.32" width="9.59" height="27.58"/><path class="cls-2" d="M347.1,299.33s21.63,14.74,42.6-.74l11.46,7.56s-28.23,27-63.83,0Z"/></g><path class="cls-7" d="M391.49,195.41s17.12,7.43,27.78,62,45.22,89.48,45.22,89.48-29.71,23.9-64.6,19.38c0,0,10.66-8.08,7.1-56.85S382.44,231.92,391.49,195.41Z"/><circle class="cls-6" cx="387.69" cy="244.03" r="18.48"/><circle class="cls-11" cx="390.49" cy="241.99" r="9.55"/><path class="cls-11" d="M361.61,182.12s11.15-11.72,25.46,3.15S396.88,240,396.88,240h-12.4s1.81-36.4-7.21-49.7C377.27,190.34,372.61,183.06,361.61,182.12Z"/><path class="cls-7" d="M362,385.24h31.21a0,0,0,0,1,0,0v24.69a6.52,6.52,0,0,1-6.52,6.52H368.52a6.52,6.52,0,0,1-6.52-6.52V385.24A0,0,0,0,1,362,385.24Z"/><path class="cls-12" d="M311.55,382.74s-18.2,20.57-9.89,59.34L310,480.85"/><path class="cls-12" d="M406.1,386.7s-4.08,15.36,4.95,43.63c0,0-18.84-.19-46.54,21.74"/><path class="cls-1" d="M356.71,459.78s-20.37-2.73-41.74,24.1l44.22-1S355,466.74,356.71,459.78Z"/><path class="cls-7" d="M364.51,453.29a30.37,30.37,0,0,0,1.57,29.28h-6.5s-6.3-.82-3.86-22.77c0,0,5.35-6.88,8.79-9.2S364.51,453.29,364.51,453.29Z"/><polygon class="cls-13" points="85.78 331.59 233.4 331.34 257.05 427.3 110.2 427.3 85.78 331.59"/><polygon class="cls-14" points="85.78 331.59 91.61 327 238.82 327.1 233.4 331.34 85.78 331.59"/><polygon class="cls-15" points="233.4 331.34 238.82 327.1 262.9 423.71 257.05 427.3 233.4 331.34"/><polygon class="cls-7" points="135.34 371.07 197.42 371.07 207.96 412.08 145.45 412.08 135.34 371.07"/><path class="cls-16" d="M167.05,389.23S134,462,123,468.78s-21.28,12.81-21.28,12.81H216.44s-41.33-7.23-44.22-23.76S183,404,183,404s3.41-9.64-2.83-12.94A21.21,21.21,0,0,0,167.05,389.23Z"/><line class="cls-17" x1="93.6" y1="485.9" x2="470.3" y2="485.9"/><path class="cls-18" d="M378.73,256.78s-17.1,32.08-43.47,28.49"/><rect class="cls-6" x="326.82" y="282.14" width="9.54" height="6.61" rx="2.9"/><line class="cls-19" x1="197.11" y1="187.19" x2="299.49" y2="187.19"/><line class="cls-19" x1="188.28" y1="200.67" x2="290.66" y2="200.67"/><line class="cls-19" x1="78.84" y1="255.3" x2="181.22" y2="255.3"/><line class="cls-19" x1="84.81" y1="268.79" x2="170.52" y2="268.79"/></g></g></svg>