<svg width="355" height="353" viewBox="0 0 355 353" fill="none" xmlns="http://www.w3.org/2000/svg">
<path d="M177.5 243C184.404 243 190 236.732 190 229C190 221.268 184.404 215 177.5 215C170.596 215 165 221.268 165 229C165 236.732 170.596 243 177.5 243Z" stroke="#0C8FA3" stroke-width="11" stroke-miterlimit="10"/>
<path d="M153 91V74" stroke="#0C8FA3" stroke-width="11" stroke-miterlimit="10" stroke-linecap="round"/>
<path d="M201 91V74" stroke="#0C8FA3" stroke-width="11" stroke-miterlimit="10" stroke-linecap="round"/>
<path d="M149.818 84H133C133 84 134.268 155 177.149 155C223.269 155 226 84 226 84H209.182" stroke="#0C8FA3" stroke-width="11" stroke-linecap="round" stroke-linejoin="round"/>
<path d="M175.108 155.5C175.108 155.5 181.972 179.692 161.141 190.213C150.312 195.68 137.346 194.429 127.4 187.469C125.474 186.118 123.435 184.526 121.312 182.628C108.607 171.289 39.6724 111.019 85.5748 50.0159C85.5748 50.0159 122.998 0.480128 176.195 50.0159C176.195 50.0159 226.95 -1.16206 271.64 53.6984C316.329 108.559 238.541 192.68 190.529 223" stroke="#0C8FA3" stroke-width="11" stroke-linecap="round" stroke-linejoin="round"/>
<path d="M65.4306 327L65.3756 303.9L54.0456 322.93H50.0306L38.7556 304.395V327H30.3956V288.5H37.7656L52.1756 312.425L66.3656 288.5H73.6806L73.7906 327H65.4306ZM111.305 312.315C111.305 312.425 111.25 313.195 111.14 314.625H88.7549C89.1582 316.458 90.1115 317.907 91.6149 318.97C93.1182 320.033 94.9882 320.565 97.2249 320.565C98.7649 320.565 100.122 320.345 101.295 319.905C102.505 319.428 103.623 318.695 104.65 317.705L109.215 322.655C106.428 325.845 102.358 327.44 97.0049 327.44C93.6682 327.44 90.7165 326.798 88.1499 325.515C85.5832 324.195 83.6032 322.38 82.2099 320.07C80.8165 317.76 80.1199 315.138 80.1199 312.205C80.1199 309.308 80.7982 306.705 82.1549 304.395C83.5482 302.048 85.4365 300.233 87.8199 298.95C90.2399 297.63 92.9349 296.97 95.9049 296.97C98.8015 296.97 101.423 297.593 103.77 298.84C106.117 300.087 107.95 301.883 109.27 304.23C110.627 306.54 111.305 309.235 111.305 312.315ZM95.9599 303.46C94.0165 303.46 92.3849 304.01 91.0649 305.11C89.7449 306.21 88.9382 307.713 88.6449 309.62H103.22C102.927 307.75 102.12 306.265 100.8 305.165C99.4799 304.028 97.8665 303.46 95.9599 303.46ZM147.157 286.19V327H138.962V323.59C136.835 326.157 133.755 327.44 129.722 327.44C126.935 327.44 124.405 326.817 122.132 325.57C119.895 324.323 118.135 322.545 116.852 320.235C115.569 317.925 114.927 315.248 114.927 312.205C114.927 309.162 115.569 306.485 116.852 304.175C118.135 301.865 119.895 300.087 122.132 298.84C124.405 297.593 126.935 296.97 129.722 296.97C133.499 296.97 136.45 298.162 138.577 300.545V286.19H147.157ZM131.207 320.4C133.37 320.4 135.167 319.667 136.597 318.2C138.027 316.697 138.742 314.698 138.742 312.205C138.742 309.712 138.027 307.732 136.597 306.265C135.167 304.762 133.37 304.01 131.207 304.01C129.007 304.01 127.192 304.762 125.762 306.265C124.332 307.732 123.617 309.712 123.617 312.205C123.617 314.698 124.332 316.697 125.762 318.2C127.192 319.667 129.007 320.4 131.207 320.4ZM155.098 297.41H163.678V327H155.098V297.41ZM159.388 293.285C157.812 293.285 156.528 292.827 155.538 291.91C154.548 290.993 154.053 289.857 154.053 288.5C154.053 287.143 154.548 286.007 155.538 285.09C156.528 284.173 157.812 283.715 159.388 283.715C160.965 283.715 162.248 284.155 163.238 285.035C164.228 285.915 164.723 287.015 164.723 288.335C164.723 289.765 164.228 290.957 163.238 291.91C162.248 292.827 160.965 293.285 159.388 293.285Z" fill="#10AFBA"/>
<path d="M190.671 327.66C186.748 327.66 183.191 326.817 180.001 325.13C176.848 323.407 174.354 321.042 172.521 318.035C170.724 314.992 169.826 311.563 169.826 307.75C169.826 303.937 170.724 300.527 172.521 297.52C174.354 294.477 176.848 292.112 180.001 290.425C183.191 288.702 186.766 287.84 190.726 287.84C194.063 287.84 197.069 288.427 199.746 289.6C202.459 290.773 204.733 292.46 206.566 294.66L200.846 299.94C198.243 296.933 195.016 295.43 191.166 295.43C188.783 295.43 186.656 295.962 184.786 297.025C182.916 298.052 181.449 299.5 180.386 301.37C179.359 303.24 178.846 305.367 178.846 307.75C178.846 310.133 179.359 312.26 180.386 314.13C181.449 316 182.916 317.467 184.786 318.53C186.656 319.557 188.783 320.07 191.166 320.07C195.016 320.07 198.243 318.548 200.846 315.505L206.566 320.785C204.733 323.022 202.459 324.727 199.746 325.9C197.033 327.073 194.008 327.66 190.671 327.66ZM211.978 286.19H220.558V327H211.978V286.19ZM228.521 297.41H237.101V327H228.521V297.41ZM232.811 293.285C231.234 293.285 229.951 292.827 228.961 291.91C227.971 290.993 227.476 289.857 227.476 288.5C227.476 287.143 227.971 286.007 228.961 285.09C229.951 284.173 231.234 283.715 232.811 283.715C234.388 283.715 235.671 284.155 236.661 285.035C237.651 285.915 238.146 287.015 238.146 288.335C238.146 289.765 237.651 290.957 236.661 291.91C235.671 292.827 234.388 293.285 232.811 293.285ZM263.049 296.97C266.716 296.97 269.667 298.07 271.904 300.27C274.177 302.47 275.314 305.733 275.314 310.06V327H266.734V311.38C266.734 309.033 266.221 307.292 265.194 306.155C264.167 304.982 262.682 304.395 260.739 304.395C258.576 304.395 256.852 305.073 255.569 306.43C254.286 307.75 253.644 309.73 253.644 312.37V327H245.064V297.41H253.259V300.875C254.396 299.628 255.807 298.675 257.494 298.015C259.181 297.318 261.032 296.97 263.049 296.97ZM283.091 297.41H291.671V327H283.091V297.41ZM287.381 293.285C285.805 293.285 284.521 292.827 283.531 291.91C282.541 290.993 282.046 289.857 282.046 288.5C282.046 287.143 282.541 286.007 283.531 285.09C284.521 284.173 285.805 283.715 287.381 283.715C288.958 283.715 290.241 284.155 291.231 285.035C292.221 285.915 292.716 287.015 292.716 288.335C292.716 289.765 292.221 290.957 291.231 291.91C290.241 292.827 288.958 293.285 287.381 293.285ZM313.934 327.44C310.781 327.44 307.939 326.798 305.409 325.515C302.916 324.195 300.954 322.38 299.524 320.07C298.131 317.76 297.434 315.138 297.434 312.205C297.434 309.272 298.131 306.65 299.524 304.34C300.954 302.03 302.916 300.233 305.409 298.95C307.939 297.63 310.781 296.97 313.934 296.97C317.051 296.97 319.764 297.63 322.074 298.95C324.421 300.233 326.126 302.085 327.189 304.505L320.534 308.08C318.994 305.367 316.776 304.01 313.879 304.01C311.643 304.01 309.791 304.743 308.324 306.21C306.858 307.677 306.124 309.675 306.124 312.205C306.124 314.735 306.858 316.733 308.324 318.2C309.791 319.667 311.643 320.4 313.879 320.4C316.813 320.4 319.031 319.043 320.534 316.33L327.189 319.96C326.126 322.307 324.421 324.14 322.074 325.46C319.764 326.78 317.051 327.44 313.934 327.44Z" fill="#0C8FA3"/>
</svg>
