<svg width="355" height="353" viewBox="0 0 355 353" fill="none" xmlns="http://www.w3.org/2000/svg">
<path d="M177.5 337C188.27 337 197 327.598 197 316C197 304.402 188.27 295 177.5 295C166.73 295 158 304.402 158 316C158 327.598 166.73 337 177.5 337Z" stroke="white" stroke-width="20" stroke-miterlimit="10"/>
<path d="M140 110V85" stroke="white" stroke-width="20" stroke-miterlimit="10" stroke-linecap="round"/>
<path d="M213 110V85" stroke="white" stroke-width="20" stroke-miterlimit="10" stroke-linecap="round"/>
<path d="M135.956 99H111C111 99 112.881 206 176.511 206C244.948 206 249 99 249 99H224.044" stroke="white" stroke-width="20" stroke-linecap="round" stroke-linejoin="round"/>
<path d="M173.929 206.923C173.929 206.923 184.177 243.149 153.075 258.904C136.908 267.09 117.55 265.217 102.699 254.795C99.8241 252.772 96.7802 250.388 93.61 247.545C74.6414 230.566 -28.2799 140.315 40.2536 48.9674C40.2536 48.9674 96.1272 -25.2092 175.551 48.9674C175.551 48.9674 251.331 -27.6683 318.053 54.4817C384.774 136.632 268.635 262.598 196.952 308" stroke="white" stroke-width="20" stroke-linecap="round" stroke-linejoin="round"/>
</svg>
